<svg width="529" height="235" viewBox="0 0 529 235" fill="none" xmlns="http://www.w3.org/2000/svg">
<path d="M527.452 97.17C527.919 130.265 528.146 163.361 528.462 196.456C528.487 199.556 527.777 202.618 526.39 205.39C525.003 208.162 522.978 210.566 520.482 212.404C517.133 214.756 513.201 216.141 509.118 216.407C489.912 219.298 470.428 221.9 451.198 224.261C327.162 238.58 201.891 238.58 77.8551 224.261C58.6242 221.912 39.1028 219.311 19.935 216.419C9.01269 215.624 0.527344 207.682 0.527344 196.456C0.843019 163.361 1.08293 130.265 1.55013 97.17C2.0047 130.265 2.25724 163.361 2.57292 196.456C2.59462 200.615 4.09546 204.63 6.80687 207.783C9.51828 210.937 13.2633 213.022 17.3718 213.667L20.2507 214.058C162.943 234.069 307.553 236.474 450.831 221.218C471.035 218.995 491.49 216.47 511.618 213.641C514.348 213.225 516.943 212.174 519.194 210.573C521.44 208.961 523.271 206.837 524.535 204.379C525.8 201.92 526.462 199.196 526.467 196.431C526.783 163.336 527.023 130.24 527.49 97.1448L527.452 97.17Z" fill="white"/>
<path d="M35.2778 141.465C35.2778 117.701 49.9757 102.322 73.1588 102.322C81.9977 102.322 93.905 105.668 99.9533 109.456C99.7387 116.477 99.423 123.497 99.6376 130.518L97.0365 130.846C89.6244 112.625 79.4723 105.276 70.9365 105.276C61.1 105.276 53.7511 116.401 53.6375 134.773C53.4228 159.509 64.8755 170.962 79.687 170.962C83.7403 170.981 87.7365 170.006 91.3265 168.124C94.9165 166.242 97.9911 163.51 100.282 160.166L102.655 161.239C98.2234 172.806 86.9854 180.697 72.3507 180.697C50.6196 180.697 35.2778 164.055 35.2778 141.465Z" fill="white"/>
<path d="M110.698 167.187C110.698 157.085 115.875 151.517 143.97 142.551C143.541 129.255 140.182 126.023 134.79 126.023C129.739 126.023 126.797 128.548 126.797 131.957C126.797 134.558 128.527 135.846 128.527 139.534C128.528 140.556 128.322 141.567 127.922 142.508C127.521 143.448 126.935 144.298 126.198 145.005C125.46 145.713 124.587 146.265 123.632 146.626C122.676 146.988 121.656 147.152 120.635 147.11C116.746 147.11 113.4 143.978 113.4 139.23C113.4 130.695 124.853 123.232 138.566 123.232C152.278 123.232 160.031 128.636 160.031 141.276V164.623C160.031 170.23 162.557 173.159 165.082 173.159C166.112 173.123 167.1 172.74 167.885 172.073L169.401 173.589C167.241 177.478 162.052 180.18 156.647 180.18C154.1 180.095 151.634 179.259 149.558 177.779C147.483 176.299 145.89 174.24 144.98 171.859C139.26 178.021 133.212 180.698 125.749 180.698C116.847 180.698 110.698 173.993 110.698 167.187ZM144.185 169.232C143.968 168.241 143.862 167.229 143.869 166.214L143.97 145.683V145.14C130.472 149.471 126.797 155.519 126.797 162.325C126.797 168.26 129.714 172.427 135.434 172.427C138.642 172.459 141.752 171.323 144.185 169.232Z" fill="white"/>
<path d="M178.442 162.325V128.396H167.747V126.78C177.032 123.174 185.453 117.65 192.458 110.567L194.516 111.754V125.606H206.941V128.422H194.516V160.191C194.516 168.285 199.163 172.717 204.024 172.717C205.631 172.747 207.188 172.155 208.368 171.063L209.883 172.578C208.238 175.058 206.008 177.094 203.389 178.508C200.771 179.922 197.845 180.669 194.869 180.685C185.576 180.697 178.442 174.106 178.442 162.325Z" fill="white"/>
<path d="M212.042 151.845C212.042 135.089 223.281 123.207 237.978 123.207C252.234 123.207 261.742 132.285 260.997 147.842C249.431 148.385 238.951 149.029 228.571 149.572C229.657 164.055 236.362 170.962 247.587 170.962C250.05 171.033 252.499 170.578 254.772 169.629C257.045 168.68 259.09 167.257 260.77 165.457L262.033 166.429C259.002 174.851 249.721 180.697 239.304 180.697C223.71 180.697 212.042 168.045 212.042 151.845ZM246.514 145.796C246.085 131.528 242.297 126.022 237.334 126.022C231.715 126.022 228.571 131.743 228.495 145.14V146.87C235.163 146.554 240.782 146.112 246.514 145.809V145.796Z" fill="white"/>
<path d="M266.958 177.023C271.718 176.266 275.064 173.993 275.064 165.659V144.546C275.064 140.329 272.034 137.311 266.958 137.311V135.038C274.846 132.026 282.213 127.795 288.79 122.5L290.734 123.687V133.788C295.911 127.298 302.187 123.194 307.048 123.194C308.205 123.134 309.362 123.311 310.449 123.713C311.535 124.115 312.528 124.734 313.367 125.533C314.206 126.332 314.874 127.294 315.329 128.359C315.784 129.425 316.017 130.572 316.013 131.73C316.013 136.591 312.996 139.508 308.235 139.508C302.073 139.508 300.028 133.46 296.997 133.46C295.381 133.46 292.994 134.862 291.163 136.591V163.487C291.163 173.21 293.979 176.24 300.343 176.998V179.586C287.716 179.258 278.524 179.258 266.958 179.586V177.023Z" fill="white"/>
<path d="M319.233 177.023C323.98 176.265 327.339 173.992 327.339 165.658V144.546C327.339 140.114 324.738 137.74 319.233 137.311V135.038C327.246 132.014 334.743 127.768 341.456 122.449L343.401 123.636V163.487C343.401 173.209 346.204 176.24 350.421 176.997V179.586C339.941 179.258 330.749 179.258 319.195 179.586L319.233 177.023Z" fill="white"/>
<path d="M354.778 177.023C359.539 176.266 362.885 173.993 362.885 165.659V144.546C362.885 140.114 360.296 137.741 354.778 137.311V135.038C362.665 132.023 370.032 127.793 376.61 122.5L378.555 123.687V133.308C384.275 126.995 392.811 123.207 400.021 123.207C409.1 123.207 415.691 129.798 415.691 139.306V163.487C415.691 173.21 418.507 176.24 423.797 176.998V179.586C412.231 179.258 403.051 179.258 392.571 179.586V176.998C396.245 176.24 399.591 173.967 399.591 165.634V142.551C399.591 134.23 396.788 130.455 391.927 130.455C389.475 130.508 387.06 131.062 384.83 132.082C382.6 133.103 380.602 134.569 378.959 136.389V163.487C378.959 173.21 381.762 176.24 385.98 176.998V179.586C375.499 179.258 366.319 179.258 354.753 179.586L354.778 177.023Z" fill="white"/>
<path d="M426.524 186.632C426.524 182.2 428.898 179.182 436.247 176.53C431.714 174.801 428.582 171.884 428.582 166.593C428.582 162.262 430.628 159.774 438.949 156.491C432.029 153.461 429.327 147.956 429.327 141.15C429.327 131.742 438.835 123.207 454.404 123.207C464.506 123.207 471.148 125.808 474.608 129.583C476.981 124.722 480.921 121.59 485.517 121.59C490.113 121.59 493.725 124.507 493.725 129.583C493.725 133.586 491.199 136.932 487.033 136.932C481.085 136.932 481.515 131.528 478.825 131.528C477.893 131.568 476.992 131.87 476.224 132.399C477.746 135.14 478.53 138.229 478.497 141.364C478.497 151.845 469.418 159.042 453.432 159.042C450.127 159.088 446.828 158.762 443.596 158.07C442.194 158.928 441.651 159.572 441.651 160.873C441.651 167.25 483.787 160.444 483.787 182.162C483.787 191.456 474.065 199.019 453.861 199.019C435.06 198.956 426.524 193.337 426.524 186.632ZM469.746 187.289C469.746 178.854 453.861 180.47 441.866 177.78C439.921 179.397 438.949 181.771 438.949 185.117C438.949 191.279 445.755 196.355 454.834 196.355C464.443 196.317 469.746 191.822 469.746 187.289ZM462.284 144.71C462.726 132.828 459.48 125.77 453.647 125.77C449.429 125.77 445.868 129.76 445.54 137.437C445.111 150.405 449.429 156.378 454.291 156.378C458.508 156.378 462.069 151.845 462.284 144.71Z" fill="white"/>
<path d="M334.839 117.159C340.118 117.159 344.398 112.879 344.398 107.6C344.398 102.321 340.118 98.0414 334.839 98.0414C329.56 98.0414 325.281 102.321 325.281 107.6C325.281 112.879 329.56 117.159 334.839 117.159Z" fill="white"/>
<path d="M210.995 13.9201L200.779 26.5471C201.265 28.9621 201.507 31.42 201.499 33.8834C201.499 46.0306 195.299 57.8747 181.826 57.8747H175.513L168.113 67.0419H181.208C206.032 67.0419 216.563 50.6268 216.563 33.1384C216.742 26.3102 214.796 19.595 210.995 13.9201ZM172.066 9.67744H178.947C188.216 9.67744 194.504 13.2888 198.027 19.3245L206.474 8.84406C200.552 3.59123 192.332 0.598633 182.357 0.598633H151.521C152.506 0.800665 157.696 1.9876 157.696 11.7735V54.7053C157.696 65.9686 153.024 66.9788 152.216 67.0672H159.628L172.129 51.5738L172.066 9.67744Z" fill="white"/>
<path d="M272.487 56.1574V31.5222L261.425 17.2915V56.1574C261.425 66.0317 257.044 66.9283 256.375 67.0166H278.51C277.474 66.9283 272.487 65.7161 272.487 56.1574ZM299.332 0.598633C300.215 0.800665 304.799 1.9876 304.799 11.5715V39.7423L273.497 0.598633H256.93L308.549 67.0166H315.772V11.5715C315.772 1.69718 320.267 0.687022 320.962 0.598633H299.332Z" fill="white"/>
<path d="M243.483 56.7509V11.3695C243.483 4.10894 246.122 1.73506 247.637 0.952189C247.951 0.788239 248.287 0.669226 248.635 0.598633L224.125 0.598633C224.82 0.800665 229.315 1.9876 229.315 11.3695V56.7509C229.315 66.0317 224.82 66.9283 224.125 67.0166H248.559C247.776 66.9283 243.483 65.7161 243.483 56.7509Z" fill="white"/>
<path d="M362.921 57.8116L355.484 67.0166H373.401L376.571 48.4676C373.111 54.718 370.055 57.4201 362.921 57.8116ZM347.39 38.0124H358.565C365.535 38.0124 366.255 40.9798 366.343 41.2955V25.537C366.141 26.1431 365.08 28.9084 358.363 28.9084H347.39V9.67745H359.954C368.338 9.67745 370.725 13.8696 372.126 18.3396V0.598633H326.947C327.957 0.800665 333.134 2.10125 333.134 11.7735V55.1473C333.134 65.8297 328.449 66.9283 327.755 67.0166H346.834L354.208 57.8494H347.39V38.0124Z" fill="white"/>
</svg>
