<svg width="152" height="60" viewBox="0 0 152 60" fill="none" xmlns="http://www.w3.org/2000/svg">
<path d="M60.9847 10.1206C61.0316 10.4901 61.0942 10.8517 61.1724 11.2094H59.4054C53.8659 11.1776 48.3304 11.1696 42.7949 11.114C37.2593 11.0584 31.7199 11.0147 26.1883 10.9511L17.8811 10.8199L13.7294 10.7564L9.57776 10.669L13.7294 10.5855L17.8811 10.518L26.1883 10.3908C31.7212 10.3219 37.2567 10.2663 42.7949 10.2239C48.3304 10.1723 53.8659 10.1603 59.4054 10.1286L60.9847 10.1206Z" fill="white"/>
<path d="M142.431 10.6649L138.279 10.7523L134.123 10.8159L125.82 10.947C120.285 11.0133 114.748 11.0689 109.21 11.1139C103.674 11.1656 98.1385 11.1735 92.6029 11.2053H90.832C90.9102 10.8477 90.9728 10.4861 91.0197 10.1166H92.5834C98.1189 10.1484 103.654 10.1563 109.19 10.2119C114.726 10.2676 120.265 10.3113 125.8 10.3788L134.104 10.506L138.259 10.5735L142.431 10.6649Z" fill="white"/>
<path d="M78.768 28.6095C78.768 25.9949 77.5483 25.6771 77.2981 25.6453H82.7711C82.5834 25.6771 81.3286 25.9314 81.3286 28.6095V35.2215H92.7397V28.6095C92.7397 25.9949 91.5474 25.6771 91.2972 25.6453H96.7194C96.4692 25.6771 95.3081 25.9949 95.3081 28.6095V43.8997C95.3081 46.4825 96.4379 46.8322 96.7194 46.864H91.3089C91.5591 46.8322 92.7202 46.5461 92.7202 43.8997V36.8149H81.3129V43.8878C81.3129 46.4706 82.4857 46.8202 82.7554 46.852H77.3294C77.5796 46.8202 78.768 46.5342 78.768 43.8878V28.6095Z" fill="white"/>
<path d="M98.9906 46.852C99.147 46.8202 100.308 46.5341 101.684 43.1566L109.112 24.7393L116.496 43.1884C117.751 46.407 119.037 46.8202 119.288 46.852H113.533C113.689 46.852 114.507 46.6931 114.507 45.5447C114.423 44.8946 114.244 44.2609 113.975 43.6652L112.689 40.2877H104.632L103.377 43.5381C103.127 44.1034 102.969 44.7058 102.908 45.3222C102.908 46.6295 103.881 46.8202 104.1 46.852H98.9906ZM112.059 38.6943L108.643 29.9525L105.226 38.6943H112.059Z" fill="white"/>
<path d="M123.033 28.6095C123.033 25.9949 121.86 25.6771 121.594 25.6453H126.985C126.735 25.6771 125.542 25.9949 125.542 28.6095V45.2586H130.652C133.388 45.2586 134.506 45.0043 135.343 42.7752L134.807 46.852H121.657C121.876 46.8202 123.033 46.5024 123.033 43.6732V28.6095Z" fill="white"/>
<path d="M139.561 28.6095C139.561 25.9949 138.388 25.6771 138.123 25.6453H143.513C143.263 25.6771 142.071 25.9949 142.071 28.6095V45.2586H147.18C149.917 45.2586 151.035 45.0043 151.852 42.7752L151.316 46.852H138.177C138.396 46.8202 139.553 46.5024 139.553 43.6732L139.561 28.6095Z" fill="white"/>
<path d="M18.6941 29.8849L15.4846 33.934C15.6351 34.706 15.7098 35.4913 15.7075 36.2784C15.7075 40.1605 13.7528 43.9234 9.5269 43.9234H7.55272L5.20715 46.8519H9.34316C17.1617 46.8519 20.4729 41.5989 20.4729 36.0201C20.5196 33.8371 19.8981 31.6933 18.6941 29.8849ZM6.45421 28.53H8.61995C11.5363 28.53 13.5105 29.6863 14.6207 31.6134L17.2751 28.2677C15.4143 26.5869 12.8263 25.6293 9.68718 25.6293H0C0.308833 25.6968 1.95464 26.0743 1.95464 29.2055V42.9142C1.95464 46.5142 0.48475 46.836 0.234556 46.8639H2.5293L6.43857 41.9168L6.45421 28.53Z" fill="white"/>
<path d="M38.0255 43.383V35.5154L34.5502 30.9657V43.383C34.5502 46.538 33.1741 46.8241 32.9474 46.8519H39.9098C39.5932 46.8241 38.0255 46.4387 38.0255 43.383ZM46.4657 25.6293C46.7471 25.6968 48.1857 26.0743 48.1857 29.1379V38.1459L38.3422 25.6293H33.1389L49.3663 46.8519H51.6337V29.1379C51.6337 25.9591 53.0489 25.6611 53.2639 25.6293H46.4657Z" fill="white"/>
<path d="M28.9287 43.5738V29.0743C28.9287 26.7538 29.7574 25.9948 30.2344 25.7445C30.3342 25.6915 30.4408 25.6527 30.551 25.6293H22.8263C23.0413 25.6968 24.4565 26.0743 24.4565 29.0743V43.5738C24.4565 46.538 23.0413 46.8241 22.8263 46.8519H30.4924C30.2578 46.8241 28.9287 46.4387 28.9287 43.5738Z" fill="white"/>
<path d="M66.4577 43.9115L64.1122 46.8519H69.7493L70.7306 40.9274C69.6633 42.9142 68.6977 43.7883 66.4577 43.9115ZM61.575 37.5856H65.0934C67.2826 37.5856 67.5093 38.5353 67.5367 38.6347V33.6002C67.4741 33.7909 67.1458 34.677 65.0308 34.677H61.5789V28.53H65.5273C68.1622 28.53 68.9127 29.873 69.3584 31.3114V25.6293H55.1482C55.4648 25.6968 57.1028 26.1101 57.1028 29.2055V43.0652C57.1028 46.4784 55.6251 46.8281 55.4101 46.8559H61.4069L63.7251 43.9274H61.5829L61.575 37.5856Z" fill="white"/>
<path d="M48.389 58.6931C48.4242 58.6931 48.694 58.6176 49.0145 57.8308L50.7463 53.5394L52.4664 57.8388C52.7557 58.5898 53.0567 58.6852 53.1153 58.6931H51.7784C51.8136 58.6931 52.0051 58.6573 52.0051 58.3871C51.9861 58.2357 51.9439 58.0882 51.88 57.9501L51.579 57.1553H49.7026L49.4094 57.9103C49.3508 58.0424 49.3138 58.1833 49.2999 58.3275C49.291 58.4122 49.3151 58.497 49.367 58.5638C49.4189 58.6307 49.4944 58.6742 49.5775 58.6852L48.389 58.6931ZM51.4344 56.7898L50.6525 54.7553L49.8707 56.7898H51.4344Z" fill="white"/>
<path d="M57.7244 54.1156H56.0825C55.4375 54.1156 55.1951 54.3183 55.1247 54.6362V53.7461H58.6431L55.9066 58.3196H57.5993C58.3812 58.3196 58.5649 58.1965 58.733 57.7554L58.6548 58.6931H54.9996L57.7244 54.1156Z" fill="white"/>
<path d="M61.2153 54.4375C61.2153 53.8216 60.9103 53.7461 60.8243 53.7382H63.7485V54.5329C63.7485 54.4494 63.6586 54.0958 62.9666 54.0958H61.7938V55.9673H62.7868C63.2559 55.9673 63.3185 55.713 63.3341 55.6613V56.6349C63.3341 56.5991 63.2676 56.3289 62.7946 56.3289H61.7938V58.3157H63.0214C63.6117 58.3157 63.8228 58.2084 64.0299 57.7991L63.897 58.6892H60.8595C60.9143 58.6892 61.1996 58.6137 61.1996 57.9819L61.2153 54.4375Z" fill="white"/>
<path d="M66.5006 54.4375C66.5006 53.8216 66.1996 53.7461 66.141 53.7302H67.8493C68.8071 53.7302 69.4365 54.3263 69.4365 55.0892C69.4375 55.2673 69.4039 55.4438 69.3376 55.6086C69.2713 55.7735 69.1735 55.9233 69.05 56.0496C68.9265 56.1759 68.7796 56.2761 68.6178 56.3445C68.456 56.4129 68.2826 56.4481 68.1074 56.4481C68.2727 56.5394 68.4085 56.6774 68.4983 56.8455L69.3466 58.2561C69.4064 58.3666 69.4897 58.4621 69.5905 58.5357C69.6913 58.6092 69.807 58.659 69.9291 58.6813H68.9205L67.9002 56.9408C67.7008 56.6031 67.5327 56.5117 67.2708 56.5117H67.087V58.0137C67.087 58.6137 67.3568 58.6892 67.4232 58.6971H66.1762C66.2348 58.6971 66.5124 58.6296 66.5124 58.0137L66.5006 54.4375ZM67.7282 56.1581C68.5374 56.1581 68.8306 55.6773 68.8306 55.1249C68.8294 54.9823 68.7993 54.8414 68.7423 54.711C68.6853 54.5806 68.6026 54.4636 68.4992 54.3671C68.3958 54.2706 68.274 54.1967 68.1414 54.15C68.0088 54.1034 67.8681 54.0849 67.7282 54.0958H67.0636V56.1581H67.7282Z" fill="white"/>
<path d="M72.263 54.4375C72.263 53.8216 71.9698 53.7461 71.9111 53.7382H73.7524C74.6828 53.7382 75.0933 54.3262 75.0933 54.9302C75.1003 55.2047 75.0139 55.4732 74.8486 55.6904C74.6834 55.9076 74.4494 56.0601 74.1863 56.1223C74.5243 56.1528 74.8365 56.3186 75.0543 56.5832C75.272 56.8477 75.3775 57.1893 75.3474 57.5329C75.3173 57.8764 75.1542 58.1938 74.894 58.4151C74.6337 58.6364 74.2976 58.7436 73.9596 58.713H71.9307C71.9893 58.713 72.2591 58.6375 72.2591 58.0018L72.263 54.4375ZM73.6156 55.9435C73.7375 55.9432 73.8579 55.9167 73.969 55.8658C74.0801 55.8149 74.1793 55.7406 74.2602 55.6479C74.3411 55.5552 74.4017 55.4462 74.4382 55.328C74.4746 55.2097 74.486 55.085 74.4717 54.962C74.4715 54.8439 74.4473 54.7271 74.4008 54.6189C74.3544 54.5107 74.2865 54.4133 74.2015 54.3328C74.1164 54.2524 74.016 54.1905 73.9065 54.1511C73.797 54.1117 73.6807 54.0956 73.5648 54.1037H72.8572V55.9435H73.6156ZM73.7407 58.3276C73.8687 58.3471 73.9994 58.3366 74.1227 58.2968C74.2461 58.257 74.3589 58.1891 74.4525 58.0982C74.5461 58.0073 74.6179 57.8959 74.6626 57.7724C74.7073 57.6489 74.7235 57.5167 74.7102 57.3859C74.72 57.244 74.6998 57.1016 74.6508 56.9683C74.6019 56.835 74.5253 56.714 74.4264 56.6134C74.3274 56.5128 74.2083 56.435 74.0772 56.3852C73.9461 56.3355 73.806 56.3149 73.6664 56.3249H72.8572V58.3117L73.7407 58.3276Z" fill="white"/>
<path d="M77.3762 58.6931C77.4153 58.6931 77.6851 58.6176 78.0056 57.8308L79.7374 53.5394L81.4536 57.8388C81.7468 58.5898 82.0478 58.6852 82.1065 58.6931H80.7695C80.8047 58.6931 80.9962 58.6573 80.9962 58.3871C80.9772 58.2357 80.935 58.0882 80.8711 57.9501L80.5701 57.1553H78.6937L78.4005 57.9103C78.3419 58.0424 78.3049 58.1833 78.291 58.3275C78.2821 58.4122 78.3062 58.497 78.3581 58.5638C78.41 58.6307 78.4855 58.6742 78.5686 58.6852L77.3762 58.6931ZM80.4255 56.7898L79.6436 54.7553L78.8617 56.7898H80.4255Z" fill="white"/>
<path d="M84.4403 54.4375C84.4403 53.8534 84.155 53.7779 84.0963 53.762H85.359C85.316 53.762 85.0228 53.8375 85.0228 54.4375V58.0136C85.0228 58.5938 85.2926 58.6733 85.359 58.6812H84.108C84.1667 58.6812 84.4403 58.6057 84.4403 58.0136V54.4375Z" fill="white"/>
<path d="M88.0604 54.4375C88.0604 53.8732 87.7907 53.7779 87.7164 53.762H88.9791C88.9126 53.762 88.6507 53.8573 88.6507 54.4454V57.7514C88.6507 58.8044 88.2598 59.2216 87.6656 59.2216C87.5408 59.2263 87.4165 59.2043 87.3007 59.1571C87.1849 59.1099 87.0801 59.0384 86.9932 58.9474C87.0912 58.982 87.1943 58.9994 87.2981 58.9991C87.8493 58.9991 88.0604 58.4706 88.0604 57.6918V54.4375Z" fill="white"/>
<path d="M90.8047 58.6931C90.8438 58.6931 91.1135 58.6176 91.4341 57.8308L93.1659 53.5394L94.8821 57.8388C95.1753 58.5898 95.4763 58.6852 95.5349 58.6931H94.2136C94.2488 58.6931 94.4403 58.6573 94.4403 58.3871C94.4213 58.2357 94.3791 58.0882 94.3152 57.9501L94.0142 57.1553H92.1378L91.8446 57.9103C91.786 58.0424 91.749 58.1833 91.7351 58.3275C91.7262 58.4122 91.7503 58.497 91.8022 58.5638C91.8541 58.6307 91.9296 58.6742 92.0127 58.6852L90.8047 58.6931ZM93.8539 56.7898L93.0721 54.7553L92.2902 56.7898H93.8539Z" fill="white"/>
<path d="M97.8922 54.513C97.8904 54.3421 97.8359 54.1762 97.7363 54.0385C97.6367 53.9009 97.497 53.7986 97.337 53.7461H98.287L101.219 57.4375V54.4375C101.219 53.8415 100.91 53.762 100.848 53.7461H102.001C101.95 53.7461 101.633 53.8295 101.633 54.4375V58.9077L98.3183 54.7395V58.0137C98.3183 58.6097 98.6388 58.6892 98.7092 58.6971H97.5364C97.5872 58.6971 97.9 58.6296 97.9 58.0137L97.8922 54.513Z" fill="white"/>
<path fill-rule="evenodd" clip-rule="evenodd" d="M78.0096 8.48743L75.9963 10.3311L74.7883 11.4278L71.9307 14.0345C72.0207 14.5942 72.2788 15.1118 72.6695 15.5166C73.6681 14.8138 74.6273 14.055 75.5428 13.2438C75.7031 13.1007 75.8517 12.9577 76.0002 12.8186C76.4431 12.3922 76.845 11.9238 77.2004 11.4199C77.2512 11.3603 77.2903 11.2967 77.3372 11.2331C77.7281 10.653 78.1816 10.3947 78.6429 10.4583L78.0096 8.48743ZM73.1895 14.2451C73.1639 14.2683 73.1341 14.2862 73.1017 14.2976C73.0693 14.309 73.035 14.3137 73.0008 14.3115C72.9666 14.3093 72.9331 14.3002 72.9024 14.2847C72.8717 14.2692 72.8444 14.2476 72.822 14.2212C72.7763 14.1689 72.7527 14.1003 72.7563 14.0304C72.76 13.9605 72.7906 13.8949 72.8415 13.8477C72.8912 13.7985 72.9578 13.7709 73.0272 13.7709C73.0966 13.7709 73.1632 13.7985 73.2129 13.8477C73.238 13.8749 73.2573 13.907 73.2697 13.9421C73.2822 13.9771 73.2874 14.0143 73.2852 14.0515C73.2831 14.0887 73.2734 14.1251 73.257 14.1583C73.2405 14.1916 73.2175 14.2211 73.1895 14.2451ZM77.6656 10.1682C77.6259 10.2018 77.5774 10.2228 77.5261 10.2288C77.4748 10.2349 77.4229 10.2256 77.3768 10.2021C77.3306 10.1786 77.2921 10.142 77.2661 10.0967C77.2401 10.0514 77.2276 9.99934 77.2302 9.94693C77.2327 9.89452 77.2503 9.84401 77.2806 9.80157C77.311 9.75912 77.3528 9.72658 77.4011 9.70791C77.4493 9.68924 77.5019 9.68525 77.5523 9.69643C77.6028 9.70761 77.6489 9.73348 77.6851 9.77088C77.7104 9.79781 77.73 9.8297 77.7428 9.86459C77.7555 9.89948 77.7612 9.93665 77.7593 9.97383C77.7575 10.011 77.7483 10.0474 77.7321 10.0808C77.716 10.1143 77.6934 10.144 77.6656 10.1682Z" fill="white"/>
<path fill-rule="evenodd" clip-rule="evenodd" d="M71.747 14.1975L71.4186 14.4955C71.4901 15.0203 71.7211 15.5093 72.0792 15.8942L72.4702 15.6439C72.0948 15.2443 71.8433 14.7413 71.747 14.1975Z" fill="#676767"/>
<path fill-rule="evenodd" clip-rule="evenodd" d="M82.3059 4.56559L78.252 8.26496L78.9869 10.5696C79.0302 10.589 79.072 10.6116 79.112 10.6372L79.843 11.0345C84.9068 6.23448 87.7293 2.55631 88.3105 0C86.2025 1.37154 84.1956 2.89745 82.3059 4.56559ZM83.0135 7.43449C81.9814 8.55105 80.8985 9.62391 79.8 10.665L79.5225 10.5219C83.9373 6.3868 86.7012 3.10068 87.814 0.663581C87.2405 2.04777 86.4714 3.33952 85.531 4.49804C84.7492 5.51527 83.8891 6.49673 83.0135 7.43449Z" fill="white"/>
<path fill-rule="evenodd" clip-rule="evenodd" d="M69.679 4.56559C67.7904 2.89763 65.7849 1.37173 63.6782 0C64.2568 2.55896 67.078 6.23183 72.1418 11.0186L72.8728 10.6213C72.9129 10.5957 72.9547 10.5731 72.9979 10.5537L73.7368 8.24906L69.679 4.56559ZM72.1848 10.665C71.0863 9.62391 70.0073 8.55105 68.9753 7.43449C68.0957 6.49673 67.2396 5.51527 66.4538 4.49804C65.516 3.33839 64.7484 2.04684 64.1747 0.663581C65.2849 3.10068 68.0475 6.3868 72.4624 10.5219L72.1848 10.665Z" fill="white"/>
<path fill-rule="evenodd" clip-rule="evenodd" d="M79.5264 15.6558C79.9027 15.2532 80.1519 14.7453 80.2418 14.1975L80.5702 14.4955C80.4971 15.0206 80.2648 15.5095 79.9056 15.8942L79.5146 15.6399L79.5264 15.6558Z" fill="#676767"/>
<path fill-rule="evenodd" clip-rule="evenodd" d="M77.1965 11.4199L75.9963 10.3311L73.983 8.49536L73.3458 10.4821C73.8149 10.4186 74.2489 10.6768 74.6554 11.257C74.6962 11.3217 74.7406 11.3841 74.7883 11.4437C75.1466 11.9477 75.551 12.4161 75.9963 12.8424C76.137 12.9855 76.2895 13.1285 76.4459 13.2676C77.3614 14.0788 78.3206 14.8376 79.3192 15.5404C79.7099 15.1357 79.968 14.618 80.058 14.0583L77.1965 11.4199ZM74.6906 10.1444C74.6442 10.1958 74.5801 10.227 74.5116 10.2314C74.4431 10.2359 74.3756 10.2132 74.3231 10.1682C74.2951 10.1443 74.2721 10.1147 74.2556 10.0815C74.2392 10.0482 74.2295 10.0119 74.2273 9.97467C74.2251 9.93749 74.2304 9.90024 74.2429 9.8652C74.2553 9.83016 74.2746 9.79806 74.2997 9.77087C74.3463 9.71817 74.4117 9.68648 74.4813 9.68275C74.551 9.67903 74.6192 9.70358 74.6711 9.751C74.7229 9.79842 74.7541 9.86484 74.7578 9.93563C74.7614 10.0064 74.7373 10.0758 74.6906 10.1285V10.1444ZM79.1628 14.2212C79.1404 14.2476 79.1131 14.2692 79.0824 14.2847C79.0517 14.3002 79.0182 14.3093 78.984 14.3115C78.9498 14.3137 78.9155 14.309 78.8831 14.2976C78.8507 14.2862 78.8209 14.2683 78.7954 14.2451C78.7435 14.1976 78.7123 14.1312 78.7087 14.0604C78.705 13.9897 78.7291 13.9203 78.7758 13.8676C78.8225 13.8149 78.8878 13.7832 78.9574 13.7795C79.0271 13.7757 79.0953 13.8003 79.1472 13.8477C79.1726 13.871 79.1932 13.8993 79.2077 13.9308C79.2223 13.9623 79.2305 13.9964 79.232 14.0311C79.2334 14.0659 79.2281 14.1006 79.2162 14.1333C79.2043 14.1659 79.1862 14.1958 79.1628 14.2212Z" fill="white"/>
<path d="M75.9909 0.663171L74.3379 2.34338L75.9909 4.02359L77.644 2.34338L75.9909 0.663171Z" fill="white"/>
</svg>
