<svg width="165" height="54" viewBox="0 0 165 54" fill="none" xmlns="http://www.w3.org/2000/svg">
<path d="M9.74876 52.8404L9.7535 52.8404C10.172 52.8499 10.583 52.8553 11.0037 52.8553L152.851 52.858H152.852L154.363 52.8553H154.364C154.775 52.8553 155.199 52.8499 155.604 52.8405L155.61 52.8403C156.458 52.83 157.304 52.7562 158.141 52.6196C158.9 52.4906 159.636 52.2481 160.323 51.9002C160.998 51.557 161.614 51.1073 162.146 50.5683L162.15 50.5644C162.683 50.036 163.13 49.4269 163.473 48.7594C163.818 48.0726 164.056 47.3369 164.178 46.5779L164.179 46.575C164.317 45.7446 164.394 44.9052 164.41 44.0635C164.41 44.0631 164.41 44.0627 164.41 44.0623L164.91 44.0717C164.916 43.644 164.916 43.2285 164.916 42.7749L9.74876 52.8404ZM9.74876 52.8404C8.90067 52.8293 8.05457 52.7555 7.21737 52.6196C6.46324 52.4895 5.7327 52.2478 5.04978 51.9024C4.37622 51.5615 3.76189 51.1144 3.2303 50.5784L3.23034 50.5784L3.22566 50.5738C2.68699 50.0447 2.23853 49.431 1.89804 48.757L1.89763 48.7562C1.55164 48.0745 1.3122 47.3437 1.18764 46.5894L1.18758 46.589C1.04822 45.7493 0.972821 44.9002 0.962032 44.0491L0.962107 44.0491L0.961846 44.0404C0.957569 43.8981 0.952514 43.5841 0.948494 43.3011C0.946499 43.1606 0.944779 43.0293 0.943557 42.933L0.942128 42.8183L0.941747 42.7868L0.94165 42.7817V42.7787M9.74876 52.8404L0.94165 42.7787M0.94165 42.7787V10.5617L0.941749 10.5541L0.942153 10.5231L0.943659 10.4102L0.948781 10.0483C0.952902 9.77053 0.957977 9.46254 0.961934 9.32513L0.962004 9.32513L0.962105 9.31681C0.972434 8.46712 1.04739 7.61944 1.18631 6.78111L1.18637 6.78076C1.31121 6.02409 1.55093 5.29093 1.89724 4.60667L1.89767 4.60582C2.23715 3.93187 2.68344 3.31728 3.21924 2.78589L3.21924 2.78589L3.22111 2.78402C3.75729 2.24659 4.37441 1.79655 5.04999 1.45028C5.7309 1.10639 6.45957 0.866658 7.21164 0.739092C8.05166 0.601779 8.90077 0.527539 9.75187 0.516994L9.75244 0.516986L11.0077 0.5H154.354H154.357L155.624 0.517668L155.625 0.51768C156.468 0.527697 157.309 0.601245 158.141 0.737697C158.901 0.866975 159.638 1.10854 160.327 1.45449C161.68 2.15246 162.781 3.25585 163.477 4.61035C163.817 5.28939 164.053 6.01596 164.176 6.76545L164.176 6.76642C164.317 7.6122 164.395 8.46711 164.412 9.32434C164.412 9.32499 164.412 9.32564 164.412 9.3263L164.912 9.31687M0.94165 42.7787L164.916 10.5585C164.916 10.1362 164.916 9.71191 164.912 9.31687M164.912 9.31687C164.895 8.43465 164.814 7.55481 164.669 6.68439L164.912 9.31687Z" stroke="#A6A6A6"/>
<path d="M33.7737 27.0964C33.7887 25.9321 34.0979 24.7906 34.6727 23.7779C35.2474 22.7653 36.069 21.9145 37.0609 21.3047C36.4307 20.4047 35.5994 19.6641 34.633 19.1417C33.6666 18.6192 32.5917 18.3293 31.4936 18.2949C29.1512 18.049 26.8804 19.6966 25.6867 19.6966C24.47 19.6966 22.6322 18.3193 20.6532 18.36C19.3731 18.4014 18.1256 18.7736 17.0322 19.4405C15.9387 20.1073 15.0367 21.046 14.4139 22.1652C11.7161 26.8359 13.7284 33.7003 16.3126 37.4758C17.6056 39.3245 19.1166 41.3896 21.0939 41.3164C23.0287 41.2361 23.7513 40.0826 26.0868 40.0826C28.4006 40.0826 29.0786 41.3164 31.0959 41.2698C33.1721 41.2361 34.4801 39.4129 35.7277 37.5466C36.6567 36.2293 37.3715 34.7734 37.8458 33.2329C36.6396 32.7227 35.6102 31.8688 34.8861 30.7775C34.162 29.6863 33.7751 28.4061 33.7737 27.0964Z" fill="white"/>
<path d="M29.9632 15.812C31.0952 14.453 31.6529 12.7064 31.5179 10.9429C29.7884 11.1245 28.1909 11.9511 27.0436 13.2579C26.4826 13.8963 26.053 14.639 25.7793 15.4435C25.5055 16.2481 25.393 17.0987 25.4482 17.9467C26.3133 17.9556 27.169 17.7681 27.9511 17.3984C28.7332 17.0286 29.4212 16.4862 29.9632 15.812Z" fill="white"/>
<path d="M58.2315 36.6361H51.6288L50.0432 41.318H47.2466L53.5005 23.9961H56.4061L62.66 41.318H59.8157L58.2315 36.6361ZM52.3126 34.4756H57.5463L54.9663 26.8772H54.8941L52.3126 34.4756Z" fill="white"/>
<path d="M76.1664 35.0043C76.1664 38.9288 74.0659 41.4503 70.8959 41.4503C70.093 41.4923 69.2944 41.3073 68.5916 40.9165C67.8889 40.5258 67.3103 39.945 66.9223 39.2407H66.8623V45.496H64.27V28.689H66.7793V30.7896H66.827C67.2328 30.0887 67.8211 29.5109 68.5292 29.1178C69.2373 28.7246 70.0388 28.5308 70.8483 28.5569C74.0535 28.5569 76.1664 31.0906 76.1664 35.0043ZM73.5019 35.0043C73.5019 32.4474 72.1805 30.7664 70.1644 30.7664C68.1837 30.7664 66.8515 32.4828 66.8515 35.0043C66.8515 37.5489 68.1837 39.253 70.1644 39.253C72.1805 39.253 73.5019 37.5843 73.5019 35.0043Z" fill="white"/>
<path d="M90.0666 35.0043C90.0666 38.9288 87.9661 41.4503 84.7962 41.4503C83.9933 41.4923 83.1947 41.3073 82.4919 40.9165C81.7892 40.5258 81.2107 39.945 80.8227 39.2407H80.7627V45.496H78.1704V28.689H80.6796V30.7896H80.7273C81.1331 30.0887 81.7214 29.5109 82.4295 29.1178C83.1376 28.7246 83.939 28.5308 84.7485 28.5569C87.9538 28.5569 90.0666 31.0906 90.0666 35.0043ZM87.4021 35.0043C87.4021 32.4474 86.0808 30.7664 84.0647 30.7664C82.0841 30.7664 80.7518 32.4828 80.7518 35.0043C80.7518 37.5489 82.0841 39.253 84.0647 39.253C86.0808 39.253 87.4021 37.5843 87.4021 35.0043H87.4021Z" fill="white"/>
<path d="M99.2535 36.4918C99.4456 38.2096 101.114 39.3374 103.395 39.3374C105.58 39.3374 107.152 38.2095 107.152 36.6607C107.152 35.3162 106.203 34.5111 103.959 33.9594L101.714 33.4186C98.5329 32.6503 97.0562 31.1628 97.0562 28.7489C97.0562 25.7602 99.6608 23.7074 103.359 23.7074C107.019 23.7074 109.529 25.7602 109.613 28.7489H106.996C106.84 27.0203 105.411 25.9768 103.322 25.9768C101.234 25.9768 99.8051 27.0326 99.8051 28.5691C99.8051 29.7938 100.718 30.5144 102.95 31.066L104.859 31.5346C108.413 32.3751 109.89 33.8027 109.89 36.3364C109.89 39.5771 107.308 41.6068 103.202 41.6068C99.3611 41.6068 96.7674 39.6248 96.5999 36.4917L99.2535 36.4918Z" fill="white"/>
<path d="M115.484 25.7003V28.689H117.886V30.7419H115.484V37.7042C115.484 38.7858 115.965 39.2898 117.021 39.2898C117.306 39.2848 117.59 39.2648 117.873 39.2298V41.2704C117.399 41.3591 116.916 41.3993 116.433 41.3903C113.877 41.3903 112.879 40.4299 112.879 37.9807V30.7419H111.043V28.689H112.879V25.7003H115.484Z" fill="white"/>
<path d="M119.277 35.0041C119.277 31.0305 121.617 28.5336 125.267 28.5336C128.928 28.5336 131.258 31.0305 131.258 35.0041C131.258 38.9886 128.94 41.4746 125.267 41.4746C121.594 41.4746 119.277 38.9886 119.277 35.0041ZM128.616 35.0041C128.616 32.2783 127.367 30.6695 125.267 30.6695C123.166 30.6695 121.918 32.2906 121.918 35.0041C121.918 37.7408 123.166 39.3373 125.267 39.3373C127.367 39.3373 128.616 37.7408 128.616 35.0041H128.616Z" fill="white"/>
<path d="M133.395 28.6888H135.867V30.8384H135.927C136.094 30.167 136.488 29.5737 137.041 29.1582C137.594 28.7427 138.273 28.5302 138.965 28.5566C139.263 28.5556 139.561 28.588 139.853 28.6534V31.0781C139.476 30.9629 139.082 30.91 138.688 30.9215C138.312 30.9062 137.936 30.9726 137.588 31.1161C137.239 31.2596 136.926 31.4769 136.669 31.7529C136.412 32.0289 136.219 32.3572 136.101 32.7153C135.983 33.0733 135.944 33.4526 135.987 33.8271V41.3179H133.395L133.395 28.6888Z" fill="white"/>
<path d="M151.805 37.6087C151.456 39.9013 149.224 41.4746 146.367 41.4746C142.693 41.4746 140.413 39.0131 140.413 35.064C140.413 31.1027 142.705 28.5336 146.258 28.5336C149.752 28.5336 151.95 30.9338 151.95 34.763V35.6511H143.03V35.8078C142.989 36.2726 143.047 36.7408 143.2 37.1814C143.354 37.6219 143.6 38.0248 143.921 38.3631C144.242 38.7014 144.632 38.9675 145.064 39.1437C145.496 39.3199 145.961 39.4021 146.427 39.385C147.04 39.4424 147.654 39.3005 148.18 38.9804C148.705 38.6604 149.114 38.1793 149.344 37.6086L151.805 37.6087ZM143.042 33.8394H149.356C149.379 33.4215 149.316 33.0033 149.17 32.611C149.024 32.2188 148.798 31.8609 148.507 31.5599C148.216 31.259 147.867 31.0214 147.479 30.862C147.092 30.7027 146.677 30.6251 146.258 30.6341C145.836 30.6316 145.418 30.7127 145.027 30.8728C144.636 31.0328 144.281 31.2686 143.982 31.5666C143.683 31.8646 143.446 32.2189 143.285 32.609C143.123 32.9991 143.041 33.4173 143.042 33.8394V33.8394Z" fill="white"/>
<path d="M51.9879 10.9585C52.5313 10.9195 53.0767 11.0016 53.5846 11.1989C54.0925 11.3962 54.5503 11.7038 54.9249 12.0994C55.2996 12.495 55.5818 12.9689 55.7511 13.4868C55.9205 14.0047 55.9727 14.5537 55.9042 15.0942C55.9042 17.7533 54.4671 19.2818 51.9879 19.2818H48.9814V10.9585H51.9879ZM50.2742 18.1047H51.8435C52.2318 18.1279 52.6204 18.0642 52.9811 17.9183C53.3417 17.7724 53.6653 17.5479 53.9282 17.2611C54.1911 16.9744 54.3868 16.6326 54.501 16.2607C54.6152 15.8888 54.645 15.4961 54.5883 15.1112C54.6409 14.7278 54.6081 14.3376 54.4921 13.9684C54.3762 13.5992 54.18 13.2602 53.9177 12.9758C53.6553 12.6913 53.3333 12.4684 52.9747 12.323C52.6161 12.1776 52.2298 12.1133 51.8435 12.1347H50.2742V18.1047Z" fill="white"/>
<path d="M57.3646 16.138C57.3251 15.7253 57.3723 15.3088 57.5032 14.9153C57.6341 14.5219 57.8458 14.1601 58.1247 13.8533C58.4036 13.5464 58.7436 13.3012 59.1228 13.1335C59.502 12.9657 59.9121 12.879 60.3267 12.879C60.7414 12.879 61.1515 12.9657 61.5307 13.1335C61.9099 13.3012 62.2499 13.5464 62.5288 13.8533C62.8077 14.1601 63.0193 14.5219 63.1502 14.9153C63.2811 15.3088 63.3284 15.7253 63.2889 16.138C63.3291 16.5512 63.2825 16.9683 63.1519 17.3624C63.0213 17.7565 62.8098 18.1189 62.5308 18.4263C62.2518 18.7338 61.9116 18.9795 61.532 19.1476C61.1525 19.3157 60.7419 19.4026 60.3267 19.4026C59.9116 19.4026 59.501 19.3157 59.1214 19.1476C58.7418 18.9795 58.4016 18.7338 58.1227 18.4263C57.8437 18.1189 57.6321 17.7565 57.5016 17.3624C57.371 16.9683 57.3244 16.5512 57.3646 16.138ZM62.0138 16.138C62.0138 14.7765 61.4022 13.9803 60.3288 13.9803C59.2513 13.9803 58.6451 14.7765 58.6451 16.138C58.6451 17.5105 59.2513 18.3005 60.3288 18.3005C61.4022 18.3005 62.0138 17.505 62.0138 16.138H62.0138Z" fill="white"/>
<path d="M71.1636 19.2812H69.8777L68.5795 14.6551H68.4814L67.1887 19.2812H65.915L64.1836 13H65.4409L66.5661 17.7929H66.6588L67.9501 13H69.1394L70.4307 17.7929H70.5288L71.6486 13H72.8882L71.1636 19.2812Z" fill="white"/>
<path d="M74.3445 13.0004H75.5378V13.9982H75.6304C75.7876 13.6398 76.0526 13.3394 76.3886 13.1388C76.7246 12.9382 77.1148 12.8474 77.5048 12.8791C77.8104 12.8561 78.1173 12.9022 78.4027 13.0139C78.6881 13.1257 78.9447 13.3002 79.1535 13.5245C79.3623 13.7489 79.5179 14.0174 79.6089 14.31C79.6998 14.6027 79.7238 14.9121 79.6789 15.2153V19.2814H78.4393V15.5266C78.4393 14.5172 78.0007 14.0152 77.0839 14.0152C76.8764 14.0055 76.6692 14.0409 76.4767 14.1187C76.2841 14.1966 76.1106 14.3152 75.9682 14.4664C75.8257 14.6176 75.7177 14.7978 75.6514 14.9946C75.5851 15.1915 75.5621 15.4004 75.5841 15.6069V19.2815H74.3445L74.3445 13.0004Z" fill="white"/>
<path d="M81.6543 10.5483H82.8939V19.2815H81.6543V10.5483Z" fill="white"/>
<path d="M84.617 16.1379C84.5775 15.7251 84.6248 15.3085 84.7557 14.9151C84.8867 14.5216 85.0984 14.1598 85.3773 13.8529C85.6562 13.5461 85.9962 13.3009 86.3755 13.1331C86.7547 12.9653 87.1648 12.8787 87.5795 12.8787C87.9942 12.8787 88.4043 12.9653 88.7836 13.1331C89.1628 13.3009 89.5028 13.5461 89.7817 13.8529C90.0607 14.1598 90.2724 14.5216 90.4033 14.9151C90.5342 15.3085 90.5815 15.7251 90.542 16.1379C90.5822 16.5511 90.5355 16.9682 90.4049 17.3623C90.2743 17.7564 90.0627 18.1188 89.7837 18.4262C89.5047 18.7337 89.1645 18.9794 88.7849 19.1475C88.4053 19.3156 87.9947 19.4025 87.5795 19.4025C87.1644 19.4025 86.7538 19.3156 86.3742 19.1475C85.9945 18.9794 85.6543 18.7337 85.3753 18.4262C85.0963 18.1188 84.8847 17.7564 84.7541 17.3623C84.6235 16.9682 84.5768 16.5511 84.617 16.1379ZM89.2663 16.1379C89.2663 14.7763 88.6546 13.9801 87.5812 13.9801C86.5037 13.9801 85.8976 14.7763 85.8976 16.1379C85.8976 17.5103 86.5037 18.3004 87.5812 18.3004C88.6547 18.3004 89.2663 17.5049 89.2663 16.1379H89.2663Z" fill="white"/>
<path d="M91.8467 17.5048C91.8467 16.3741 92.6885 15.7223 94.1829 15.6297L95.8843 15.5316V14.9894C95.8843 14.326 95.4456 13.9514 94.5983 13.9514C93.9063 13.9514 93.4268 14.2055 93.2893 14.6496H92.0892C92.2158 13.5707 93.2307 12.8787 94.6555 12.8787C96.2303 12.8787 97.1184 13.6626 97.1184 14.9894V19.2811H95.9251V18.3984H95.827C95.628 18.715 95.3484 18.9732 95.017 19.1464C94.6855 19.3197 94.314 19.4019 93.9404 19.3846C93.6767 19.412 93.4102 19.3839 93.1581 19.302C92.9059 19.2201 92.6737 19.0863 92.4765 18.9092C92.2792 18.7321 92.1212 18.5156 92.0128 18.2737C91.9043 18.0318 91.8477 17.7699 91.8467 17.5048ZM95.8843 16.968V16.4429L94.3504 16.541C93.4854 16.5989 93.0931 16.8931 93.0931 17.4469C93.0931 18.0122 93.5835 18.3412 94.2578 18.3412C94.4554 18.3612 94.655 18.3412 94.8447 18.2825C95.0344 18.2238 95.2104 18.1275 95.3621 17.9994C95.5139 17.8713 95.6383 17.714 95.728 17.5368C95.8177 17.3596 95.8708 17.1662 95.8843 16.968Z" fill="white"/>
<path d="M98.7478 16.1382C98.7478 14.1535 99.7681 12.8961 101.355 12.8961C101.748 12.8781 102.137 12.9721 102.478 13.1672C102.819 13.3624 103.098 13.6505 103.281 13.9981H103.374V10.5483H104.613V19.2815H103.426V18.2891H103.328C103.13 18.6343 102.842 18.919 102.494 19.1121C102.146 19.3053 101.753 19.3997 101.355 19.385C99.7572 19.3851 98.7478 18.1277 98.7478 16.1382ZM100.028 16.1382C100.028 17.4705 100.656 18.2721 101.707 18.2721C102.751 18.2721 103.397 17.4589 103.397 16.1437C103.397 14.8346 102.745 14.0097 101.707 14.0097C100.663 14.0097 100.028 14.8169 100.028 16.1382H100.028Z" fill="white"/>
<path d="M109.743 16.138C109.703 15.7253 109.75 15.3088 109.881 14.9153C110.012 14.5219 110.224 14.1601 110.503 13.8533C110.782 13.5464 111.122 13.3012 111.501 13.1335C111.88 12.9657 112.29 12.879 112.705 12.879C113.119 12.879 113.529 12.9657 113.909 13.1335C114.288 13.3012 114.628 13.5464 114.907 13.8533C115.186 14.1601 115.397 14.5219 115.528 14.9153C115.659 15.3088 115.706 15.7253 115.667 16.138C115.707 16.5512 115.66 16.9683 115.53 17.3624C115.399 17.7565 115.188 18.1189 114.909 18.4263C114.63 18.7338 114.29 18.9795 113.91 19.1476C113.53 19.3157 113.12 19.4026 112.705 19.4026C112.29 19.4026 111.879 19.3157 111.499 19.1476C111.12 18.9795 110.78 18.7338 110.501 18.4263C110.222 18.1189 110.01 17.7565 109.879 17.3624C109.749 16.9683 109.702 16.5512 109.743 16.138ZM114.392 16.138C114.392 14.7765 113.78 13.9803 112.707 13.9803C111.629 13.9803 111.023 14.7765 111.023 16.138C111.023 17.5105 111.629 18.3005 112.707 18.3005C113.78 18.3005 114.392 17.505 114.392 16.138Z" fill="white"/>
<path d="M117.33 13.0004H118.523V13.9982H118.616C118.773 13.6398 119.038 13.3394 119.374 13.1388C119.71 12.9382 120.1 12.8474 120.49 12.8791C120.796 12.8561 121.102 12.9022 121.388 13.0139C121.673 13.1257 121.93 13.3002 122.139 13.5245C122.347 13.7489 122.503 14.0174 122.594 14.31C122.685 14.6027 122.709 14.9121 122.664 15.2153V19.2814H121.424V15.5266C121.424 14.5172 120.986 14.0152 120.069 14.0152C119.862 14.0055 119.654 14.0409 119.462 14.1187C119.269 14.1966 119.096 14.3152 118.953 14.4664C118.811 14.6176 118.703 14.7978 118.636 14.9946C118.57 15.1915 118.547 15.4004 118.569 15.6069V19.2815H117.33V13.0004Z" fill="white"/>
<path d="M129.669 11.4366V13.029H131.029V14.0732H129.669V17.3029C129.669 17.9608 129.94 18.2489 130.557 18.2489C130.715 18.2484 130.873 18.2389 131.029 18.2203V19.2529C130.807 19.2927 130.581 19.3139 130.355 19.3162C128.977 19.3162 128.428 18.8313 128.428 17.6203V14.0731H127.43V13.029H128.428V11.4366H129.669Z" fill="white"/>
<path d="M132.723 10.5483H133.952V14.0097H134.05C134.215 13.648 134.487 13.3459 134.83 13.1445C135.172 12.9432 135.569 12.8524 135.965 12.8845C136.269 12.868 136.573 12.9188 136.855 13.0332C137.137 13.1476 137.391 13.323 137.597 13.5466C137.804 13.7703 137.959 14.0368 138.051 14.3271C138.142 14.6174 138.169 14.9244 138.128 15.2262V19.2815H136.887V15.532C136.887 14.5287 136.42 14.0206 135.544 14.0206C135.331 14.0031 135.117 14.0324 134.916 14.1064C134.716 14.1804 134.534 14.2974 134.383 14.4491C134.233 14.6007 134.117 14.7835 134.044 14.9846C133.972 15.1856 133.944 15.4001 133.963 15.6131V19.2815H132.723L132.723 10.5483Z" fill="white"/>
<path d="M145.356 17.5852C145.188 18.1593 144.823 18.6558 144.325 18.988C143.828 19.3202 143.229 19.4669 142.634 19.4024C142.221 19.4133 141.809 19.334 141.429 19.1701C141.049 19.0062 140.709 18.7615 140.433 18.453C140.157 18.1445 139.951 17.7797 139.83 17.3838C139.71 16.9879 139.676 16.5704 139.733 16.1603C139.678 15.749 139.712 15.3306 139.832 14.9335C139.953 14.5364 140.157 14.1699 140.432 13.8587C140.707 13.5476 141.045 13.299 141.424 13.13C141.803 12.9609 142.214 12.8752 142.629 12.8788C144.377 12.8788 145.431 14.0728 145.431 16.0452V16.4777H140.996V16.5472C140.976 16.7777 141.005 17.0097 141.081 17.2284C141.156 17.447 141.277 17.6475 141.434 17.8169C141.592 17.9863 141.783 18.121 141.995 18.2122C142.208 18.3034 142.437 18.3492 142.668 18.3466C142.965 18.3822 143.265 18.3288 143.531 18.1932C143.798 18.0577 144.017 17.846 144.163 17.5852L145.356 17.5852ZM140.996 15.561H144.168C144.184 15.3501 144.155 15.1384 144.084 14.9393C144.013 14.7402 143.901 14.5582 143.755 14.405C143.61 14.2518 143.434 14.1307 143.239 14.0495C143.043 13.9684 142.833 13.929 142.622 13.9338C142.408 13.9311 142.195 13.9714 141.996 14.0522C141.798 14.133 141.617 14.2528 141.466 14.4044C141.314 14.5561 141.194 14.7365 141.114 14.9352C141.033 15.1338 140.993 15.3466 140.996 15.561H140.996Z" fill="white"/>
</svg>
