<svg width="49" height="48" viewBox="0 0 49 48" fill="none" xmlns="http://www.w3.org/2000/svg">
<path fill-rule="evenodd" clip-rule="evenodd" d="M36.3726 24.0124C36.3726 24.0078 36.375 24.0054 36.375 24.0008C36.375 23.9238 36.337 23.8608 36.3299 23.7861C36.3109 23.5621 36.2824 23.3381 36.1945 23.1281C36.1304 22.9694 36.0211 22.8434 35.9238 22.7034C35.8501 22.6008 35.8097 22.4818 35.7195 22.3884L28.9199 15.3884C28.0126 14.4551 26.5116 14.4224 25.5616 15.3114C24.614 16.2004 24.5784 17.6774 25.4832 18.6108L28.452 21.6674H15C13.689 21.6674 12.625 22.7104 12.625 24.0008C12.625 25.2888 13.689 26.3341 15 26.3341H28.2668L25.1959 29.3511C24.2673 30.2611 24.2673 31.7381 25.1959 32.6504C25.659 33.1054 26.267 33.3341 26.875 33.3341C27.483 33.3341 28.091 33.1054 28.5541 32.6504L35.6791 25.6504C35.8952 25.4381 36.071 25.1814 36.1898 24.8991C36.3109 24.6168 36.3702 24.3158 36.3726 24.0124ZM24.5 42.6663C14.0239 42.6663 5.5 34.292 5.5 23.9997C5.5 13.7073 14.0239 5.33301 24.5 5.33301C34.9761 5.33301 43.5 13.7073 43.5 23.9997C43.5 34.292 34.9761 42.6663 24.5 42.6663ZM24.5 0.666504C11.4043 0.666504 0.75 11.1338 0.75 23.9998C0.75 36.8658 11.4043 47.3332 24.5 47.3332C37.5957 47.3332 48.25 36.8658 48.25 23.9998C48.25 11.1338 37.5957 0.666504 24.5 0.666504Z" fill="#828282"/>
</svg>
