<svg width="120" height="44" viewBox="0 0 120 44" fill="none" xmlns="http://www.w3.org/2000/svg">
<path d="M3.878 13.126C3.234 13.126 2.67867 12.986 2.212 12.706C1.75467 12.4167 1.40467 12.034 1.162 11.558C0.919333 11.0727 0.798 10.5407 0.798 9.962C0.798 9.15933 0.952 8.45467 1.26 7.848C1.568 7.232 1.99733 6.75133 2.548 6.406C3.09867 6.05133 3.738 5.874 4.466 5.874C4.998 5.874 5.46 5.96733 5.852 6.154C6.25333 6.34067 6.57533 6.59733 6.818 6.924C7.07 7.25067 7.238 7.61933 7.322 8.03L6.146 8.31C6.10867 7.89933 5.94533 7.554 5.656 7.274C5.376 6.98467 4.96067 6.84 4.41 6.84C4.05533 6.84 3.724 6.91467 3.416 7.064C3.11733 7.21333 2.856 7.428 2.632 7.708C2.408 7.97867 2.23533 8.30533 2.114 8.688C1.99267 9.06133 1.932 9.48133 1.932 9.948C1.932 10.3587 2.01133 10.732 2.17 11.068C2.32867 11.404 2.55733 11.67 2.856 11.866C3.164 12.062 3.542 12.16 3.99 12.16C4.354 12.16 4.69467 12.0667 5.012 11.88C5.33867 11.6933 5.56733 11.418 5.698 11.054L6.79 11.446C6.54733 11.9873 6.16467 12.4027 5.642 12.692C5.12867 12.9813 4.54067 13.126 3.878 13.126ZM7.9672 13L9.5912 6H10.5012L10.3472 7.61L10.1792 7.512C10.3285 7.16667 10.5339 6.87267 10.7952 6.63C11.0565 6.378 11.3505 6.18667 11.6772 6.056C12.0132 5.92533 12.3445 5.86 12.6712 5.86C12.8205 5.86 12.9512 5.86933 13.0632 5.888C13.1845 5.90667 13.2919 5.93933 13.3852 5.986L13.0492 7.05C12.9559 7.00333 12.8485 6.97067 12.7272 6.952C12.6152 6.924 12.4799 6.91 12.3212 6.91C11.9665 6.91 11.6305 6.994 11.3132 7.162C11.0052 7.32067 10.7345 7.568 10.5012 7.904C10.2679 8.24 10.0905 8.674 9.9692 9.206L9.0872 13H7.9672ZM16.6062 13.126C15.9622 13.126 15.4069 12.986 14.9402 12.706C14.4829 12.426 14.1329 12.048 13.8902 11.572C13.6475 11.096 13.5262 10.564 13.5262 9.976C13.5262 9.248 13.6709 8.57133 13.9602 7.946C14.2495 7.32067 14.6695 6.82133 15.2202 6.448C15.7802 6.06533 16.4569 5.874 17.2502 5.874C17.8195 5.874 18.3049 5.99067 18.7062 6.224C19.1169 6.45733 19.4295 6.77933 19.6442 7.19C19.8589 7.59133 19.9662 8.04867 19.9662 8.562C19.9662 8.74867 19.9475 8.94467 19.9102 9.15C19.8822 9.346 19.8355 9.55133 19.7702 9.766H14.0722V8.786H19.2802L18.7902 9.178C18.8182 9.066 18.8369 8.954 18.8462 8.842C18.8649 8.73 18.8742 8.62267 18.8742 8.52C18.8742 8.184 18.8042 7.89 18.6642 7.638C18.5335 7.386 18.3422 7.19 18.0902 7.05C17.8382 6.91 17.5349 6.84 17.1802 6.84C16.7229 6.84 16.3309 6.93333 16.0042 7.12C15.6869 7.29733 15.4255 7.54 15.2202 7.848C15.0242 8.156 14.8795 8.50133 14.7862 8.884C14.7022 9.25733 14.6602 9.63533 14.6602 10.018C14.6602 10.438 14.7442 10.8113 14.9122 11.138C15.0895 11.4553 15.3322 11.7073 15.6402 11.894C15.9482 12.0713 16.3122 12.16 16.7322 12.16C17.2082 12.1507 17.6002 12.048 17.9082 11.852C18.2162 11.656 18.4682 11.3993 18.6642 11.082L19.5462 11.67C19.3409 11.9687 19.0935 12.23 18.8042 12.454C18.5149 12.6687 18.1835 12.8367 17.8102 12.958C17.4462 13.07 17.0449 13.126 16.6062 13.126ZM24.1995 13.112C23.6582 13.112 23.1822 12.9813 22.7715 12.72C22.3609 12.4587 22.0389 12.0993 21.8055 11.642C21.5722 11.1753 21.4555 10.6387 21.4555 10.032C21.4555 9.45333 21.5442 8.912 21.7215 8.408C21.8989 7.904 22.1462 7.46067 22.4635 7.078C22.7809 6.69533 23.1589 6.39667 23.5975 6.182C24.0362 5.96733 24.5122 5.86 25.0255 5.86C25.4362 5.86 25.8049 5.93 26.1315 6.07C26.4582 6.21 26.7289 6.41067 26.9435 6.672C27.1582 6.924 27.3075 7.22733 27.3915 7.582L27.7555 6H28.8755L27.2515 13H26.2715L26.5095 11.698C26.2855 12.1273 25.9635 12.4727 25.5435 12.734C25.1329 12.986 24.6849 13.112 24.1995 13.112ZM24.4935 12.16C24.8202 12.16 25.1282 12.076 25.4175 11.908C25.7162 11.74 25.9775 11.5113 26.2015 11.222C26.4349 10.9233 26.6169 10.578 26.7475 10.186C26.8782 9.78467 26.9435 9.35533 26.9435 8.898C26.9435 8.478 26.8642 8.114 26.7055 7.806C26.5562 7.48867 26.3415 7.246 26.0615 7.078C25.7909 6.91 25.4689 6.826 25.0955 6.826C24.7222 6.826 24.3815 6.91 24.0735 7.078C23.7655 7.23667 23.4995 7.46067 23.2755 7.75C23.0515 8.03933 22.8742 8.38 22.7435 8.772C22.6222 9.15467 22.5615 9.57 22.5615 10.018C22.5615 10.4753 22.6362 10.8627 22.7855 11.18C22.9349 11.4973 23.1495 11.74 23.4295 11.908C23.7189 12.076 24.0735 12.16 24.4935 12.16ZM32.6025 13.112C32.1545 13.112 31.7718 13.0233 31.4545 12.846C31.1372 12.6687 30.9132 12.412 30.7825 12.076C30.6518 11.74 30.6378 11.3387 30.7405 10.872L32.2105 4.46L33.4285 4.11L31.8325 10.928C31.7392 11.3573 31.7952 11.6653 32.0005 11.852C32.2152 12.0293 32.4812 12.118 32.7985 12.118C33.0318 12.118 33.2372 12.0853 33.4145 12.02C33.5918 11.9547 33.7458 11.8707 33.8765 11.768L34.1005 12.692C33.8672 12.8507 33.6292 12.958 33.3865 13.014C33.1438 13.0793 32.8825 13.112 32.6025 13.112ZM30.2225 6.966L30.4465 6H35.1505L34.9265 6.966H30.2225ZM38.8093 13.126C38.1653 13.126 37.61 12.986 37.1433 12.706C36.686 12.426 36.336 12.048 36.0933 11.572C35.8506 11.096 35.7293 10.564 35.7293 9.976C35.7293 9.248 35.874 8.57133 36.1633 7.946C36.4526 7.32067 36.8726 6.82133 37.4233 6.448C37.9833 6.06533 38.66 5.874 39.4533 5.874C40.0226 5.874 40.508 5.99067 40.9093 6.224C41.32 6.45733 41.6326 6.77933 41.8473 7.19C42.062 7.59133 42.1693 8.04867 42.1693 8.562C42.1693 8.74867 42.1506 8.94467 42.1133 9.15C42.0853 9.346 42.0386 9.55133 41.9733 9.766H36.2753V8.786H41.4833L40.9933 9.178C41.0213 9.066 41.04 8.954 41.0493 8.842C41.068 8.73 41.0773 8.62267 41.0773 8.52C41.0773 8.184 41.0073 7.89 40.8673 7.638C40.7366 7.386 40.5453 7.19 40.2933 7.05C40.0413 6.91 39.738 6.84 39.3833 6.84C38.926 6.84 38.534 6.93333 38.2073 7.12C37.89 7.29733 37.6286 7.54 37.4233 7.848C37.2273 8.156 37.0826 8.50133 36.9893 8.884C36.9053 9.25733 36.8633 9.63533 36.8633 10.018C36.8633 10.438 36.9473 10.8113 37.1153 11.138C37.2926 11.4553 37.5353 11.7073 37.8433 11.894C38.1513 12.0713 38.5153 12.16 38.9353 12.16C39.4113 12.1507 39.8033 12.048 40.1113 11.852C40.4193 11.656 40.6713 11.3993 40.8673 11.082L41.7493 11.67C41.544 11.9687 41.2966 12.23 41.0073 12.454C40.718 12.6687 40.3866 12.8367 40.0133 12.958C39.6493 13.07 39.248 13.126 38.8093 13.126ZM46.4027 13.112C45.8613 13.112 45.3853 12.9813 44.9747 12.72C44.564 12.4587 44.242 12.0993 44.0087 11.642C43.7753 11.1753 43.6587 10.6387 43.6587 10.032C43.6587 9.45333 43.7473 8.912 43.9247 8.408C44.102 7.904 44.3493 7.46067 44.6667 7.078C44.984 6.69533 45.362 6.39667 45.8007 6.182C46.2393 5.96733 46.7153 5.86 47.2287 5.86C47.6393 5.86 48.008 5.93 48.3347 6.07C48.6613 6.21 48.932 6.41067 49.1467 6.672C49.3613 6.924 49.5107 7.22733 49.5947 7.582L50.7007 2.78H51.8207L49.4547 13H48.4747L48.7127 11.698C48.4887 12.1273 48.1667 12.4727 47.7467 12.734C47.336 12.986 46.888 13.112 46.4027 13.112ZM46.6827 12.16C47.0187 12.16 47.336 12.076 47.6347 11.908C47.9333 11.74 48.1947 11.5113 48.4187 11.222C48.6427 10.9233 48.82 10.578 48.9507 10.186C49.0813 9.78467 49.1467 9.35533 49.1467 8.898C49.1467 8.478 49.0673 8.114 48.9087 7.806C48.7593 7.48867 48.5447 7.246 48.2647 7.078C47.994 6.91 47.672 6.826 47.2987 6.826C46.9253 6.826 46.5847 6.91 46.2767 7.078C45.9687 7.23667 45.7027 7.46067 45.4787 7.75C45.2547 8.03933 45.0773 8.38 44.9467 8.772C44.8253 9.15467 44.7647 9.57 44.7647 10.018C44.7647 10.4753 44.8393 10.8627 44.9887 11.18C45.138 11.4973 45.3527 11.74 45.6327 11.908C45.922 12.076 46.272 12.16 46.6827 12.16ZM61.4268 5.888C61.9308 5.888 62.3834 6.00933 62.7848 6.252C63.1861 6.49467 63.4988 6.84933 63.7228 7.316C63.9561 7.77333 64.0728 8.33333 64.0728 8.996C64.0728 9.584 63.9794 10.13 63.7928 10.634C63.6154 11.1287 63.3634 11.5673 63.0368 11.95C62.7194 12.3233 62.3414 12.6173 61.9028 12.832C61.4734 13.0373 61.0068 13.14 60.5028 13.14C60.0734 13.14 59.6908 13.0653 59.3548 12.916C59.0281 12.7573 58.7621 12.5473 58.5568 12.286C58.3514 12.0247 58.2114 11.7353 58.1368 11.418L57.7728 13H56.6528L59.0188 2.78H60.1388L59.1308 7.12C59.3454 6.76533 59.6581 6.47133 60.0688 6.238C60.4794 6.00467 60.9321 5.888 61.4268 5.888ZM60.4888 12.174C60.8248 12.174 61.1421 12.0947 61.4408 11.936C61.7394 11.7773 62.0008 11.558 62.2248 11.278C62.4581 10.9887 62.6401 10.648 62.7708 10.256C62.9014 9.864 62.9668 9.43467 62.9668 8.968C62.9668 8.492 62.8828 8.1 62.7148 7.792C62.5561 7.47467 62.3368 7.24133 62.0568 7.092C61.7768 6.93333 61.4594 6.854 61.1048 6.854C60.7314 6.854 60.3908 6.938 60.0828 7.106C59.7748 7.26467 59.5088 7.48867 59.2848 7.778C59.0608 8.06733 58.8881 8.41267 58.7668 8.814C58.6454 9.21533 58.5848 9.654 58.5848 10.13C58.5848 10.7367 58.7434 11.2313 59.0608 11.614C59.3874 11.9873 59.8634 12.174 60.4888 12.174ZM64.6582 16.01C64.3036 16.01 64.0002 15.968 63.7482 15.884C63.4869 15.8 63.2722 15.6833 63.1042 15.534L63.5522 14.596C63.8696 14.8853 64.2242 15.03 64.6162 15.03C64.9149 15.03 65.1762 14.946 65.4002 14.778C65.6336 14.61 65.8622 14.3487 66.0862 13.994L66.7442 12.944L65.5122 6H66.6182L67.2622 10.004L67.5422 11.754L68.5222 10.116L71.0002 6H72.2742L66.9822 14.372C66.7396 14.7547 66.4876 15.0673 66.2262 15.31C65.9742 15.5527 65.7176 15.73 65.4562 15.842C65.1949 15.954 64.9289 16.01 64.6582 16.01Z" fill="white"/>
<g clip-path="url(#clip0_271_6513)">
<path d="M0 25.5265H5.15942C8.60567 25.5265 10.0348 27.443 10.0348 30.0066C10.0348 33.0666 7.92728 34.4671 4.84646 34.4671H1.80363V39.979H0V25.5265ZM4.68183 32.8361C7.14576 32.8361 8.15883 31.6146 8.15883 29.9658C8.15883 28.1379 6.94315 27.154 4.96585 27.154H1.80363V32.8361H4.68183Z" fill="white"/>
<path d="M21.2727 34.8732C21.2727 35.132 21.2329 35.4884 21.222 35.5486H13.4594C13.6728 37.3854 15.0097 38.5874 16.8242 38.5874C18.0815 38.5874 19.0439 38.0218 19.6717 37.2559L20.8476 38.2399C19.9865 39.3426 18.608 40.1067 16.7627 40.1067C13.8936 40.1067 11.7354 38.0502 11.7354 35.031C11.7354 32.0117 13.8429 29.9552 16.5691 29.9552C19.2954 29.9552 21.2727 32.0312 21.2727 34.8714V34.8732ZM16.6614 31.4763C15.0803 31.4763 13.814 32.4993 13.4992 34.1782H19.6011C19.337 32.5596 18.2624 31.4763 16.6614 31.4763Z" fill="white"/>
<path d="M28.4185 40.1068C25.2761 40.1068 23.1885 37.8818 23.1885 35.0417C23.1885 32.2015 25.2761 29.957 28.4185 29.957C31.398 29.957 33.6177 32.0224 33.6177 35.0417C33.6177 38.0609 31.398 40.1068 28.4185 40.1068ZM28.4185 38.5874C30.365 38.5874 31.9154 37.1266 31.9154 35.0417C31.9154 32.9568 30.374 31.4764 28.4185 31.4764C26.3109 31.4764 24.8908 33.0649 24.8908 35.0417C24.8908 37.0184 26.3308 38.5874 28.4185 38.5874Z" fill="white"/>
<path d="M41.3712 29.957C44.2295 29.957 46.3172 32.1625 46.3172 35.0913C46.3172 38.0201 44.1481 40.1068 41.3604 40.1068C39.9312 40.1068 38.7354 39.5111 37.925 38.5077H37.8852V44H36.2136V30.0758H37.896V31.5367H37.9358C38.7771 30.5137 40.0036 29.957 41.3712 29.957ZM44.604 35.1019C44.604 32.8965 43.1043 31.4658 41.1777 31.4658C39.251 31.4658 37.8327 33.0649 37.8327 35.1019C37.8327 37.139 39.4138 38.5981 41.1976 38.5981C43.2545 38.5981 44.6022 37.0982 44.6022 35.1019H44.604Z" fill="white"/>
<path d="M49.0344 25H50.706V39.9773H49.0344V25Z" fill="white"/>
<path d="M62.9695 34.8732C62.9695 35.132 62.9297 35.4884 62.9188 35.5486H55.1562C55.3696 37.3854 56.7065 38.5874 58.521 38.5874C59.7783 38.5874 60.7407 38.0218 61.3684 37.2559L62.5443 38.2399C61.6832 39.3426 60.3047 40.1067 58.4595 40.1067C55.5903 40.1067 53.4321 38.0502 53.4321 35.031C53.4321 32.0117 55.5397 29.9552 58.2659 29.9552C60.9922 29.9552 62.9695 32.0312 62.9695 34.8714V34.8732ZM55.196 34.1782H61.2979C61.0338 32.5596 59.9592 31.4763 58.3582 31.4763C56.7572 31.4763 55.5107 32.4993 55.196 34.1782Z" fill="white"/>
<path d="M73.0044 32.3805C74.6977 32.7279 76.0852 33.9495 76.0852 36.0663C76.0852 38.3604 74.5041 39.979 71.1592 39.979H65.7881V25.5265H70.602C73.491 25.5265 75.3562 26.5991 75.3562 29.0528C75.3562 30.4728 74.6054 31.8131 73.0044 32.3503V32.3805ZM67.5917 31.7351H70.5821C71.9913 31.7351 73.5019 31.1288 73.5019 29.4002C73.5019 28.0387 72.5702 27.1558 70.2275 27.1558H67.5917V31.7351ZM70.6526 38.3498C72.7602 38.3498 74.1893 37.5555 74.1893 35.9067C74.1893 34.2579 72.9827 33.3236 70.734 33.3236H67.5917V38.3498H70.6526Z" fill="white"/>
<path d="M83.7864 29.957C83.9384 29.957 84.0795 29.957 84.2025 29.9765V31.7937C83.9601 31.7742 83.7068 31.7636 83.535 31.7636C81.6192 31.7636 80.4632 33.2138 80.4632 35.1994V39.9774H78.7808V30.0758H80.4632V31.8044H80.503C81.2537 30.6325 82.4188 29.957 83.7864 29.957Z" fill="white"/>
<path d="M95.4022 30.0758V39.9791H93.7904V38.4101H93.7596C92.9492 39.472 91.7118 40.1085 90.2229 40.1085C87.4352 40.1085 85.2661 38.1229 85.2661 35.093C85.2661 32.0632 87.3538 29.9587 90.2121 29.9587C91.5906 29.9587 92.837 30.5154 93.6782 31.5472H93.718V30.0775H95.4004L95.4022 30.0758ZM93.7813 35.1019C93.7813 33.0648 92.3413 31.4657 90.4056 31.4657C88.4699 31.4657 86.9793 32.8964 86.9793 35.1019C86.9793 37.0981 88.327 38.598 90.3839 38.598C92.1984 38.598 93.7795 37.1974 93.7795 35.1019H93.7813Z" fill="white"/>
<path d="M107.503 34.1074V39.988H105.821V34.5648C105.821 32.2405 104.828 31.4658 103.348 31.4658C101.443 31.4658 100.175 32.8061 100.175 35.031V39.9774H98.4922V30.0758H100.175V31.7849H100.205C101.047 30.6024 102.374 29.957 103.874 29.957C106.054 29.957 107.503 31.269 107.503 34.1091V34.1074Z" fill="white"/>
<path d="M120 25V39.9773H118.388V38.4083H118.357C117.556 39.4703 116.329 40.1067 114.86 40.1067C112.073 40.1067 109.904 38.1211 109.904 35.0913C109.904 32.0614 111.991 29.957 114.85 29.957C116.208 29.957 117.444 30.5137 118.285 31.5455H118.316V25H119.998H120ZM118.379 35.1019C118.379 33.0649 116.939 31.4657 115.045 31.4657C113.151 31.4657 111.619 32.8964 111.619 35.1019C111.619 37.0982 112.966 38.598 115.023 38.598C116.796 38.598 118.377 37.1974 118.377 35.1019H118.379Z" fill="white"/>
</g>
<defs>
<clipPath id="clip0_271_6513">
<rect width="120" height="19" fill="white" transform="translate(0 25)"/>
</clipPath>
</defs>
</svg>
