<svg width="188" height="27" viewBox="0 0 188 27" fill="none" xmlns="http://www.w3.org/2000/svg">
<path d="M23.3283 5.89826L19.3229 10.8676C19.5142 11.8137 19.6085 12.7767 19.6046 13.7419C19.5958 18.5088 17.1661 23.1216 11.8843 23.1216H9.41937L6.51873 26.7133H11.6554C21.3917 26.7177 25.5291 20.2694 25.5291 13.4382C25.5944 10.7576 24.8254 8.12285 23.3283 5.89826ZM8.05488 4.23006H10.753C14.3887 4.23006 16.8536 5.65177 18.2357 8.01542L21.5677 3.90875C19.2261 1.84881 16.0041 0.673584 12.0867 0.673584H0C0.387339 0.752812 2.42087 1.21498 2.42087 5.07516V21.8716C2.42087 26.2732 0.585409 26.6825 0.272898 26.7133H3.15593L8.05488 20.6436V4.23006Z" fill="white"/>
<path d="M47.4358 22.4614V12.8043L43.1002 7.21872V22.4614C43.1002 26.3348 41.3792 26.6825 41.1019 26.7177H49.7862C49.3901 26.6825 47.4358 26.2027 47.4358 22.4614ZM57.96 0.673584C58.3121 0.752812 60.1079 1.21498 60.1079 4.97832V16.0439L47.8319 0.673584H41.3352L61.5825 26.7177H64.4127V4.97832C64.4127 1.10494 66.1733 0.708797 66.4462 0.673584H57.96Z" fill="white"/>
<path d="M36.0618 22.6814V4.89909C36.0618 2.05128 37.0962 1.12254 37.6904 0.814434C37.8145 0.747683 37.9481 0.70019 38.0865 0.673584L28.4735 0.673584C28.742 0.752812 30.507 1.21498 30.507 4.89909V22.6814C30.507 26.3215 28.7464 26.6692 28.4735 26.7045H38.0513C37.7432 26.6825 36.0618 26.2027 36.0618 22.6814Z" fill="white"/>
<path d="M82.877 23.1217L79.9588 26.731H87.0013L88.2469 19.4596C86.8957 21.898 85.6984 22.9588 82.877 23.1217ZM76.8117 15.3441H81.2132C83.951 15.3441 84.2283 16.5105 84.2635 16.6337V10.4715C84.1843 10.7092 83.7573 11.792 81.134 11.792H76.8337V4.23007H81.737C85.0206 4.23007 85.9581 5.88066 86.5127 7.63249V0.673584H68.792C69.1881 0.752813 71.2217 1.25899 71.2217 5.07517V22.0653C71.2217 26.2556 69.3818 26.6826 69.1089 26.7178H76.5916L79.4834 23.1217H76.8117V15.3441Z" fill="white"/>
<path d="M99.7132 20.9957C101.671 22.9026 104.296 23.9689 107.029 23.9667C109.313 24.0019 111.307 23.2757 112.429 22.3734C113.342 21.6999 114.093 20.8325 114.63 19.8337L114.846 19.3627C114.651 20.1418 114.333 20.8848 113.904 21.5635C113.513 22.2807 113.042 22.9512 112.5 23.5618C111.024 25.0764 109.111 26.0907 107.029 26.4624C102.719 27.1843 98.7008 25.8814 96.2007 23.4517C93.6824 21.0082 92.2022 17.6885 92.0677 14.1821C91.962 10.1634 93.1196 6.97672 95.5141 4.63509C97.9101 2.29051 101.076 0.895377 104.423 0.708895C106.183 0.610891 107.949 0.747062 109.674 1.11384C111.005 1.34892 112.283 1.82633 113.442 2.52234L113.882 2.81284L113.803 8.59649C112.619 5.94708 110.596 3.76132 108.045 2.37709C105.331 0.924571 102.722 0.887892 100.219 2.26705C98.7361 3.09894 97.6136 4.54705 96.8874 6.54096C96.1532 8.66865 95.9182 10.9367 96.2007 13.1697C96.5265 16.3961 97.6841 19.0018 99.7132 20.9957Z" fill="white"/>
<path d="M128.733 26.0309C130.833 26.0309 132.897 25.2695 134.961 23.7465C137.026 22.2236 138.333 20.6346 138.945 19.0368L137.426 26.3566H116.924C117.364 26.3566 120.401 26.2818 120.401 22.6593V4.51162C120.401 3.19115 119.93 2.23161 119.384 1.79585C118.738 1.27761 117.933 0.996448 117.104 0.999165H127.862C127.23 1.01308 126.611 1.17436 126.053 1.47013C125.172 1.79585 124.53 2.91825 124.53 4.51162V22.4436C124.53 24.8352 125.543 26.0309 127.571 26.0309H128.733Z" fill="white"/>
<path d="M161.26 5.77925C161.26 3.78974 160.574 2.33722 159.597 1.76062C158.985 1.33421 158.274 1.07201 157.532 0.999146H165.173C164.472 1.07981 163.807 1.35584 163.254 1.79583C162.374 2.37684 161.696 3.89538 161.696 5.95971V15.5243C161.696 16.1405 161.696 16.6819 161.661 17.0825C161.635 17.7249 161.574 18.3655 161.481 19.0015C161.397 19.7403 161.239 20.4688 161.01 21.1759C160.609 22.3335 159.742 24.0721 158.58 25.0537C156.997 26.1815 155.091 26.7653 153.148 26.7175C149.852 26.7175 147.462 25.6303 146.049 24.147C145.313 23.3015 144.759 22.3143 144.42 21.2463C143.659 18.8915 143.438 16.8448 143.438 13.8209V5.01777C143.438 3.25715 142.787 1.97629 141.88 1.54054C141.336 1.20273 140.712 1.01587 140.071 0.999146H151.3C150.621 1.0042 149.957 1.19609 149.381 1.55374C148.474 1.9939 147.822 3.25715 147.822 5.03098V15.6828C147.822 21.9506 149.997 25.5379 154.742 25.3662C159.236 25.221 161.26 22.1091 161.26 15.2954V5.77925Z" fill="white"/>
<path d="M185.465 14.367C187.019 15.2473 188 17.1532 188 19.7633C188 22.1182 187.019 23.892 185.826 24.7987C185.143 25.2769 184.381 25.6328 183.577 25.8507C182.055 26.2606 180.481 26.443 178.906 26.3921L165.975 26.3569C166.676 26.3361 167.365 26.176 168.004 25.8859C169.051 25.4854 169.764 24.4378 169.764 22.8444V4.40191C169.771 3.88044 169.652 3.36505 169.418 2.89875C169.185 2.43245 168.843 2.02876 168.422 1.72136C167.687 1.26264 166.841 1.01306 165.975 0.999509L178.11 0.924683C183.541 0.924683 186.261 2.98901 186.261 7.08686C186.261 10.5685 184.193 12.8837 180.98 13.1742C182.556 13.1501 184.109 13.563 185.465 14.367ZM173.906 13.0994C175.229 13.127 176.553 13.0667 177.868 12.9189C180.804 12.5184 182.216 10.5245 182.181 6.97682C182.146 4.69241 181.42 3.17388 180.077 2.3772C178.735 1.58051 176.697 1.21519 173.906 1.29001V13.0994ZM177.868 13.5704C177.507 13.5307 176.204 13.5307 173.906 13.5307V22.7344C173.906 24.2177 174.377 25.1597 175.227 25.5954C176.008 25.957 176.867 26.1189 177.727 26.0664C181.059 26.1016 183.594 24.1473 183.629 20.0538C183.687 15.6699 181.587 13.8212 177.854 13.5704H177.868Z" fill="white"/>
</svg>
