<svg width="31" height="30" viewBox="0 0 31 30" fill="none" xmlns="http://www.w3.org/2000/svg">
<path fill-rule="evenodd" clip-rule="evenodd" d="M12.9584 25H15.5001V17.25C15.5001 16.5588 16.0681 16 16.7709 16H19.6176L20.1831 14H16.7709C16.0681 14 15.5001 13.4412 15.5001 12.75V9.375C15.5001 8.065 16.64 7 18.0417 7H20.5834V5H18.0417C15.2383 5 12.9584 6.9625 12.9584 9.375V12.75C12.9584 13.4412 12.3904 14 11.6876 14H9.14591V16H11.6876C12.3904 16 12.9584 16.5588 12.9584 17.25V25ZM16.7709 27.5H11.6876C10.9848 27.5 10.4167 26.9412 10.4167 26.25V18.5H7.87508C7.17231 18.5 6.60425 17.9412 6.60425 17.25V12.75C6.60425 12.0588 7.17231 11.5 7.87508 11.5H10.4167V9.375C10.4167 5.585 13.8366 2.5 18.0417 2.5H21.8542C22.557 2.5 23.1251 3.05875 23.1251 3.75V8.25C23.1251 8.94 22.557 9.5 21.8542 9.5H18.0417V11.5H21.8542C22.2507 11.5 22.6256 11.6838 22.8658 11.9937C23.106 12.305 23.1848 12.7088 23.0793 13.085L21.8085 17.5838C21.656 18.125 21.154 18.5 20.5834 18.5H18.0417V26.25C18.0417 26.9412 17.4737 27.5 16.7709 27.5Z" fill="white"/>
</svg>
