<svg width="178" height="53" viewBox="0 0 178 53" fill="none" xmlns="http://www.w3.org/2000/svg">
<path d="M171.274 52.2556H6.58746C3.17512 52.2556 0.5 49.5785 0.5 46.1612V6.59456C0.5 3.17732 3.17512 0.500122 6.58746 0.500122H171.274C174.686 0.500122 177.361 3.17732 177.361 6.59456V46.1612C177.361 49.5785 174.686 52.2556 171.274 52.2556Z" stroke="#A6A6A6" stroke-miterlimit="10"/>
<path d="M62.5151 13.4528C62.5151 14.5079 62.2514 15.4311 61.5919 16.0906C60.8006 16.8819 59.8774 17.2776 58.6904 17.2776C57.5034 17.2776 56.5801 16.8819 55.7888 16.0906C54.9975 15.2993 54.6018 14.376 54.6018 13.189C54.6018 12.002 54.9975 11.0788 55.7888 10.2875C56.5801 9.49613 57.5034 9.10046 58.6904 9.10046C59.2179 9.10046 59.7455 9.23235 60.273 9.49613C60.8006 9.75991 61.1962 10.0237 61.46 10.4194L60.8006 11.0788C60.273 10.4194 59.6136 10.1556 58.6904 10.1556C57.899 10.1556 57.1077 10.4194 56.5801 11.0788C55.9207 11.6064 55.6569 12.3977 55.6569 13.3209C55.6569 14.2441 55.9207 15.0355 56.5801 15.563C57.2396 16.0906 57.899 16.4863 58.6904 16.4863C59.6136 16.4863 60.273 16.2225 60.9325 15.563C61.3281 15.1674 61.5919 14.6398 61.5919 13.9804H58.6904V12.9252H62.5151V13.4528V13.4528ZM68.582 10.1556H65.021V12.6615H68.3183V13.5847H65.021V16.0906H68.582V17.1457H63.9659V9.23235H68.582V10.1556ZM72.9344 17.1457H71.8793V10.1556H69.6371V9.23235H75.1765V10.1556H72.9344V17.1457ZM79.0013 17.1457V9.23235H80.0564V17.1457H79.0013ZM84.5406 17.1457H83.4855V10.1556H81.2434V9.23235H86.6508V10.1556H84.4087V17.1457H84.5406V17.1457ZM97.07 16.0906C96.2787 16.8819 95.3555 17.2776 94.1685 17.2776C92.9815 17.2776 92.0583 16.8819 91.2669 16.0906C90.4756 15.2993 90.0799 14.376 90.0799 13.189C90.0799 12.002 90.4756 11.0788 91.2669 10.2875C92.0583 9.49613 92.9815 9.10046 94.1685 9.10046C95.3555 9.10046 96.2787 9.49613 97.07 10.2875C97.8614 11.0788 98.257 12.002 98.257 13.189C98.257 14.376 97.8614 15.2993 97.07 16.0906ZM92.0583 15.4311C92.5858 15.9587 93.3771 16.3544 94.1685 16.3544C94.9598 16.3544 95.7511 16.0906 96.2787 15.4311C96.8063 14.9036 97.2019 14.1122 97.2019 13.189C97.2019 12.2658 96.9381 11.4745 96.2787 10.9469C95.7511 10.4194 94.9598 10.0237 94.1685 10.0237C93.3771 10.0237 92.5858 10.2875 92.0583 10.9469C91.5307 11.4745 91.135 12.2658 91.135 13.189C91.135 14.1122 91.3988 14.9036 92.0583 15.4311ZM99.7078 17.1457V9.23235H100.895L104.72 15.4311V9.23235H105.775V17.1457H104.72L100.631 10.6831V17.1457H99.7078V17.1457Z" fill="white" stroke="#A6A6A6" stroke-width="0.2" stroke-miterlimit="10"/>
<path d="M89.8165 28.7516C86.6512 28.7516 84.1453 31.1256 84.1453 34.4228C84.1453 37.7201 86.6512 40.0941 89.8165 40.0941C92.9818 40.0941 95.4877 37.7201 95.4877 34.4228C95.4877 31.1256 92.9818 28.7516 89.8165 28.7516ZM89.8165 37.7201C88.102 37.7201 86.6512 36.2693 86.6512 34.291C86.6512 32.3126 88.102 30.8618 89.8165 30.8618C91.5311 30.8618 92.9818 32.1807 92.9818 34.291C92.9818 36.2693 91.5311 37.7201 89.8165 37.7201ZM77.5509 28.7516C74.3855 28.7516 71.8796 31.1256 71.8796 34.4228C71.8796 37.7201 74.3855 40.0941 77.5509 40.0941C80.7162 40.0941 83.2221 37.7201 83.2221 34.4228C83.2221 31.1256 80.7162 28.7516 77.5509 28.7516ZM77.5509 37.7201C75.8363 37.7201 74.3855 36.2693 74.3855 34.291C74.3855 32.3126 75.8363 30.8618 77.5509 30.8618C79.2654 30.8618 80.7162 32.1807 80.7162 34.291C80.7162 36.2693 79.2654 37.7201 77.5509 37.7201ZM62.9112 30.4662V32.8402H68.5824C68.4505 34.1591 67.923 35.2142 67.2635 35.8736C66.4722 36.665 65.1533 37.5882 62.9112 37.5882C59.3502 37.5882 56.7124 34.8185 56.7124 31.2575C56.7124 27.6965 59.4821 24.9269 62.9112 24.9269C64.7576 24.9269 66.2084 25.7182 67.2635 26.6414L68.9781 24.9269C67.5273 23.608 65.6809 22.5529 63.0431 22.5529C58.2951 22.5529 54.2065 26.5095 54.2065 31.2575C54.2065 36.0055 58.2951 39.9622 63.0431 39.9622C65.6809 39.9622 67.5273 39.1708 69.11 37.4563C70.6926 35.8736 71.2202 33.6315 71.2202 31.917C71.2202 31.3894 71.2202 30.8618 71.0883 30.4662H62.9112V30.4662ZM122.789 32.3126C122.261 30.9937 120.942 28.7516 118.041 28.7516C115.139 28.7516 112.765 30.9937 112.765 34.4228C112.765 37.5882 115.139 40.0941 118.304 40.0941C120.81 40.0941 122.393 38.5114 122.921 37.5882L121.074 36.2693C120.415 37.1925 119.623 37.852 118.304 37.852C116.986 37.852 116.194 37.3244 115.535 36.1374L123.052 32.9721L122.789 32.3126V32.3126ZM115.139 34.1591C115.139 32.0488 116.854 30.8618 118.041 30.8618C118.964 30.8618 119.887 31.3894 120.151 32.0488L115.139 34.1591ZM108.94 39.5665H111.446V23.0804H108.94V39.5665ZM104.984 29.9386C104.324 29.2792 103.269 28.6197 101.95 28.6197C99.1806 28.6197 96.5428 31.1256 96.5428 34.291C96.5428 37.4563 99.0487 39.8303 101.95 39.8303C103.269 39.8303 104.324 39.1708 104.852 38.5114H104.984V39.3027C104.984 41.413 103.797 42.5999 101.95 42.5999C100.5 42.5999 99.4444 41.5448 99.1806 40.6216L97.0704 41.5448C97.7298 42.9956 99.3125 44.8421 102.082 44.8421C104.852 44.8421 107.358 43.1275 107.358 39.039V29.0154H104.984V29.9386V29.9386ZM102.082 37.7201C100.368 37.7201 98.9168 36.2693 98.9168 34.291C98.9168 32.3126 100.368 30.8618 102.082 30.8618C103.797 30.8618 105.116 32.3126 105.116 34.291C105.116 36.2693 103.797 37.7201 102.082 37.7201ZM134.263 23.0804H128.328V39.5665H130.834V33.3677H134.263C137.033 33.3677 139.67 31.3894 139.67 28.2241C139.67 25.0587 137.033 23.0804 134.263 23.0804V23.0804ZM134.395 30.9937H130.834V25.3225H134.395C136.241 25.3225 137.296 26.9052 137.296 28.0922C137.165 29.543 136.109 30.9937 134.395 30.9937ZM149.562 28.6197C147.716 28.6197 145.869 29.4111 145.21 31.1256L147.452 32.0488C147.979 31.1256 148.771 30.8618 149.694 30.8618C151.013 30.8618 152.2 31.6532 152.332 32.9721V33.104C151.936 32.8402 150.881 32.4445 149.826 32.4445C147.452 32.4445 145.078 33.7634 145.078 36.1374C145.078 38.3795 147.056 39.8303 149.166 39.8303C150.881 39.8303 151.672 39.039 152.332 38.2476H152.464V39.5665H154.838V33.2358C154.574 30.3343 152.332 28.6197 149.562 28.6197V28.6197ZM149.298 37.7201C148.507 37.7201 147.32 37.3244 147.32 36.2693C147.32 34.9504 148.771 34.5547 149.958 34.5547C151.013 34.5547 151.54 34.8185 152.2 35.0823C151.936 36.665 150.617 37.7201 149.298 37.7201V37.7201ZM163.147 29.0154L160.377 36.1374H160.245L157.344 29.0154H154.706L159.058 39.039L156.552 44.5783H159.058L165.784 29.0154H163.147V29.0154ZM140.989 39.5665H143.495V23.0804H140.989V39.5665Z" fill="white"/>
<mask id="path-4-inside-1_148_2751" fill="white">
<path d="M30.2155 26.1274L30.2023 26.1406L30.1364 26.0746L27.0765 23.0411L30.1496 26.0614L30.2155 26.1274Z"/>
</mask>
<path d="M30.2155 26.1274L30.2023 26.1406L30.1364 26.0746L27.0765 23.0411L30.1496 26.0614L30.2155 26.1274Z" fill="white"/>
<path d="M30.2155 26.1274L30.3569 26.2688L30.4984 26.1274L30.3569 25.9859L30.2155 26.1274ZM30.2023 26.1406L30.0609 26.282L30.2023 26.4234L30.3438 26.282L30.2023 26.1406ZM30.1364 26.0746L30.2778 25.9332L30.2772 25.9326L30.1364 26.0746ZM27.0765 23.0411L27.2167 22.8985L26.9357 23.1832L27.0765 23.0411ZM30.1496 26.0614L30.291 25.92L30.2898 25.9188L30.1496 26.0614ZM30.0741 25.9859L30.0609 25.9991L30.3438 26.282L30.3569 26.2688L30.0741 25.9859ZM30.3438 25.9991L30.2778 25.9332L29.995 26.216L30.0609 26.282L30.3438 25.9991ZM30.2772 25.9326L27.2173 22.8991L26.9357 23.1832L29.9956 26.2166L30.2772 25.9326ZM26.9363 23.1838L30.0094 26.2041L30.2898 25.9188L27.2167 22.8985L26.9363 23.1838ZM30.0082 26.2028L30.0741 26.2688L30.3569 25.9859L30.291 25.92L30.0082 26.2028Z" fill="#191919" mask="url(#path-4-inside-1_148_2751)"/>
<path d="M13.6976 10.3832L29.8233 26.3784L13.8695 42.3322C13.601 41.973 13.447 41.4555 13.447 40.8858V11.7384C13.447 11.1437 13.5309 10.6987 13.6976 10.3832Z" fill="white" stroke="#191919" stroke-width="0.2"/>
<mask id="path-7-inside-2_148_2751" fill="white">
<path d="M30.2156 26.6287L30.2024 26.6419L30.0837 26.7606L13.9801 42.8641L13.9669 42.8509L30.2024 26.6155L30.2156 26.6287Z"/>
</mask>
<path d="M30.2156 26.6287L30.2024 26.6419L30.0837 26.7606L13.9801 42.8641L13.9669 42.8509L30.2024 26.6155L30.2156 26.6287Z" fill="white"/>
<path d="M30.2156 26.6287L30.3571 26.7701L30.4985 26.6287L30.3571 26.4872L30.2156 26.6287ZM13.9801 42.8641L13.8387 43.0056L13.9801 43.147L14.1215 43.0056L13.9801 42.8641ZM13.9669 42.8509L13.8255 42.7095L13.6841 42.851L13.8255 42.9924L13.9669 42.8509ZM30.2024 26.6155L30.3439 26.4741L30.2024 26.3326L30.061 26.4741L30.2024 26.6155ZM30.0742 26.4872L30.061 26.5004L30.3439 26.7833L30.3571 26.7701L30.0742 26.4872ZM30.061 26.5004L29.9423 26.6191L30.2252 26.902L30.3439 26.7833L30.061 26.5004ZM29.9423 26.6191L13.8387 42.7227L14.1215 43.0056L30.2252 26.902L29.9423 26.6191ZM14.1215 42.7227L14.1083 42.7095L13.8255 42.9924L13.8387 43.0056L14.1215 42.7227ZM14.1083 42.9924L30.3439 26.7569L30.061 26.4741L13.8255 42.7095L14.1083 42.9924ZM30.061 26.7569L30.0742 26.7701L30.3571 26.4872L30.3439 26.4741L30.061 26.7569Z" fill="#191919" mask="url(#path-7-inside-2_148_2751)"/>
<mask id="path-9-inside-3_148_2751" fill="white">
<path d="M30.2154 26.6286H30.2022L13.9535 42.8641C13.9535 42.8641 14.059 42.9432 14.1118 42.9696L30.2022 26.866L30.3209 26.7605H30.3341L30.2154 26.6286V26.6286ZM30.255 25.956L14.0326 9.97107C14.0326 9.97107 13.9799 9.99745 13.9535 10.0238L26.9446 22.9093L27.0765 23.0412L30.1363 26.0747L30.2022 26.1406H30.2154L30.3209 26.0219L30.255 25.956ZM30.4396 26.378L30.4924 26.4308V26.3253L30.4396 26.378Z"/>
</mask>
<path d="M30.2154 26.6286H30.2022L13.9535 42.8641C13.9535 42.8641 14.059 42.9432 14.1118 42.9696L30.2022 26.866L30.3209 26.7605H30.3341L30.2154 26.6286V26.6286ZM30.255 25.956L14.0326 9.97107C14.0326 9.97107 13.9799 9.99745 13.9535 10.0238L26.9446 22.9093L27.0765 23.0412L30.1363 26.0747L30.2022 26.1406H30.2154L30.3209 26.0219L30.255 25.956ZM30.4396 26.378L30.4924 26.4308V26.3253L30.4396 26.378Z" fill="#383838"/>
<path d="M30.2022 26.6286V26.4286H30.1194L30.0609 26.4871L30.2022 26.6286ZM13.9535 42.8641L13.8121 42.7226L13.6489 42.8857L13.8335 43.0241L13.9535 42.8641ZM14.1118 42.9696L14.0223 43.1485L14.1513 43.213L14.2532 43.111L14.1118 42.9696ZM30.2022 26.866L30.0691 26.7163L30.0607 26.7246L30.2022 26.866ZM30.3209 26.7605V26.5605H30.2449L30.1881 26.611L30.3209 26.7605ZM30.3341 26.7605V26.9605H30.7832L30.4828 26.6267L30.3341 26.7605ZM30.255 25.956L30.3964 25.8145L30.3954 25.8135L30.255 25.956ZM14.0326 9.97107L14.173 9.82861L14.0711 9.72822L13.9432 9.79218L14.0326 9.97107ZM13.9535 10.0238L13.8121 9.8824L13.6701 10.0244L13.8126 10.1658L13.9535 10.0238ZM26.9446 22.9093L27.086 22.7679L27.0854 22.7673L26.9446 22.9093ZM27.0765 23.0412L26.935 23.1827L26.9356 23.1833L27.0765 23.0412ZM30.1363 26.0747L30.2777 25.9333L30.2771 25.9326L30.1363 26.0747ZM30.2022 26.1406L30.0608 26.282L30.1194 26.3406H30.2022V26.1406ZM30.2154 26.1406V26.3406H30.3052L30.3649 26.2735L30.2154 26.1406ZM30.3209 26.0219L30.4704 26.1548L30.5957 26.0138L30.4623 25.8805L30.3209 26.0219ZM30.4396 26.378L30.2982 26.2366L30.1568 26.378L30.2982 26.5194L30.4396 26.378ZM30.4924 26.4308L30.351 26.5722L30.6924 26.9136V26.4308H30.4924ZM30.4924 26.3253H30.6924V25.8424L30.351 26.1838L30.4924 26.3253ZM30.2154 26.4286H30.2022V26.8286H30.2154V26.4286ZM30.0609 26.4871L13.8121 42.7226L14.0949 43.0056L30.3436 26.7701L30.0609 26.4871ZM13.9535 42.8641C13.8335 43.0241 13.8335 43.0241 13.8335 43.0241C13.8335 43.0241 13.8335 43.0241 13.8335 43.0241C13.8335 43.0241 13.8335 43.0241 13.8336 43.0241C13.8336 43.0242 13.8336 43.0242 13.8337 43.0242C13.8338 43.0243 13.8339 43.0244 13.834 43.0245C13.8343 43.0247 13.8346 43.025 13.8351 43.0253C13.836 43.026 13.8374 43.027 13.839 43.0282C13.8423 43.0307 13.847 43.0341 13.8528 43.0384C13.8643 43.0467 13.8803 43.0583 13.8981 43.0708C13.9299 43.0931 13.9809 43.1278 14.0223 43.1485L14.2012 42.7907C14.1899 42.7851 14.1617 42.767 14.1275 42.7431C14.1124 42.7326 14.0987 42.7227 14.0888 42.7154C14.0839 42.7118 14.0799 42.7089 14.0772 42.7069C14.0759 42.7059 14.0749 42.7052 14.0743 42.7047C14.074 42.7044 14.0737 42.7043 14.0736 42.7042C14.0735 42.7041 14.0735 42.7041 14.0735 42.7041C14.0735 42.7041 14.0735 42.7041 14.0735 42.7041C14.0735 42.7041 14.0735 42.7041 14.0735 42.7041C14.0735 42.7041 14.0735 42.7041 14.0735 42.7041C14.0735 42.7041 14.0735 42.7041 13.9535 42.8641ZM14.2532 43.111L30.3437 27.0074L30.0607 26.7246L13.9703 42.8282L14.2532 43.111ZM30.3351 27.0155L30.4538 26.91L30.1881 26.611L30.0694 26.7165L30.3351 27.0155ZM30.3209 26.9605H30.3341V26.5605H30.3209V26.9605ZM30.4828 26.6267L30.3641 26.4948L30.0668 26.7624L30.1855 26.8943L30.4828 26.6267ZM30.3954 25.8135L14.173 9.82861L13.8923 10.1135L30.1146 26.0984L30.3954 25.8135ZM14.0326 9.97107C13.9432 9.79218 13.9432 9.79219 13.9431 9.7922C13.9431 9.7922 13.9431 9.79221 13.9431 9.79222C13.9431 9.79223 13.9431 9.79225 13.943 9.79226C13.943 9.79229 13.9429 9.79231 13.9429 9.79234C13.9427 9.7924 13.9426 9.79247 13.9425 9.79255C13.9422 9.7927 13.9418 9.79287 13.9414 9.79307C13.9406 9.79348 13.9396 9.79399 13.9384 9.79461C13.936 9.79584 13.9329 9.79749 13.9292 9.79951C13.9217 9.8035 13.9115 9.80916 13.9001 9.81606C13.8811 9.82744 13.8435 9.85095 13.8121 9.8824L14.0949 10.1652C14.0898 10.1703 14.0919 10.1674 14.1058 10.1591C14.1108 10.1561 14.1155 10.1535 14.1188 10.1517C14.1204 10.1508 14.1216 10.1502 14.1222 10.1499C14.1225 10.1497 14.1226 10.1497 14.1226 10.1497C14.1226 10.1497 14.1226 10.1497 14.1225 10.1497C14.1224 10.1498 14.1224 10.1498 14.1223 10.1498C14.1223 10.1499 14.1222 10.1499 14.1222 10.1499C14.1222 10.1499 14.1222 10.1499 14.1221 10.1499C14.1221 10.1499 14.1221 10.1499 14.1221 10.1499C14.1221 10.1499 14.1221 10.15 14.0326 9.97107ZM13.8126 10.1658L26.8037 23.0513L27.0854 22.7673L14.0943 9.88183L13.8126 10.1658ZM26.8031 23.0508L26.935 23.1827L27.2179 22.8998L27.086 22.7679L26.8031 23.0508ZM26.9356 23.1833L29.9955 26.2167L30.2771 25.9326L27.2173 22.8992L26.9356 23.1833ZM29.9949 26.2161L30.0608 26.282L30.3436 25.9992L30.2777 25.9333L29.9949 26.2161ZM30.2022 26.3406H30.2154V25.9406H30.2022V26.3406ZM30.3649 26.2735L30.4704 26.1548L30.1714 25.889L30.0659 26.0077L30.3649 26.2735ZM30.4623 25.8805L30.3964 25.8146L30.1136 26.0974L30.1795 26.1633L30.4623 25.8805ZM30.2982 26.5194L30.351 26.5722L30.6338 26.2894L30.581 26.2366L30.2982 26.5194ZM30.6924 26.4308V26.3253H30.2924V26.4308H30.6924ZM30.351 26.1838L30.2982 26.2366L30.581 26.5194L30.6338 26.4667L30.351 26.1838Z" fill="#191919" mask="url(#path-9-inside-3_148_2751)"/>
<mask id="path-11-inside-4_148_2751" fill="white">
<path d="M35.4646 31.8778L35.4514 31.891L30.2023 26.6419V26.6155L30.2155 26.6287L30.3342 26.7474L35.4646 31.8778Z"/>
</mask>
<path d="M35.4646 31.8778L35.4514 31.891L30.2023 26.6419V26.6155L30.2155 26.6287L30.3342 26.7474L35.4646 31.8778Z" fill="white"/>
<path d="M35.4646 31.8778L35.606 32.0192L35.7475 31.8778L35.606 31.7364L35.4646 31.8778ZM35.4514 31.891L35.31 32.0324L35.4514 32.1738L35.5928 32.0324L35.4514 31.891ZM30.2023 26.6419H30.0023V26.7247L30.0608 26.7833L30.2023 26.6419ZM30.2023 26.6155L30.3437 26.4741L30.0023 26.1326V26.6155H30.2023ZM35.3232 31.7364L35.31 31.7495L35.5928 32.0324L35.606 32.0192L35.3232 31.7364ZM35.5928 31.7495L30.3437 26.5004L30.0608 26.7833L35.31 32.0324L35.5928 31.7495ZM30.4023 26.6419V26.6155H30.0023V26.6419H30.4023ZM30.0608 26.7569L30.074 26.7701L30.3569 26.4872L30.3437 26.4741L30.0608 26.7569ZM30.074 26.7701L30.1927 26.8888L30.4756 26.6059L30.3569 26.4872L30.074 26.7701ZM30.1927 26.8888L35.3232 32.0192L35.606 31.7364L30.4756 26.6059L30.1927 26.8888Z" fill="#191919" mask="url(#path-11-inside-4_148_2751)"/>
<path d="M35.8255 31.6356L30.581 26.378L35.7054 21.2405L42.0752 24.8952L42.0753 24.8953C42.8904 25.3611 43.3174 25.967 43.3174 26.5758C43.3174 27.1844 42.8907 27.79 42.0763 28.2557L35.8255 31.6356Z" fill="white" stroke="#191919" stroke-width="0.2"/>
<mask id="path-14-inside-5_148_2751" fill="white">
<path d="M35.3859 20.8254L30.1498 26.0614L30.2158 26.1406H30.2289L30.3345 26.0219L35.4782 20.8782L35.399 20.8254H35.3859ZM30.3345 26.7472L30.2158 26.6285H30.2026L30.0707 26.7472H30.0839L30.2026 26.8659L35.3067 31.97L35.4518 31.8909H35.465L30.3345 26.7472V26.7472Z"/>
</mask>
<path d="M35.3859 20.8254L30.1498 26.0614L30.2158 26.1406H30.2289L30.3345 26.0219L35.4782 20.8782L35.399 20.8254H35.3859ZM30.3345 26.7472L30.2158 26.6285H30.2026L30.0707 26.7472H30.0839L30.2026 26.8659L35.3067 31.97L35.4518 31.8909H35.465L30.3345 26.7472V26.7472Z" fill="#383838"/>
<path d="M35.3859 20.8254V20.6254H35.303L35.2444 20.684L35.3859 20.8254ZM30.1498 26.0614L30.0084 25.92L29.8792 26.0491L29.9962 26.1895L30.1498 26.0614ZM30.2158 26.1406L30.0621 26.2686L30.1221 26.3406H30.2158V26.1406ZM30.2289 26.1406V26.3406H30.3188L30.3784 26.2734L30.2289 26.1406ZM30.3345 26.0219L30.1928 25.8802L30.185 25.889L30.3345 26.0219ZM35.4782 20.8782L35.6196 21.0196L35.7921 20.8471L35.5891 20.7118L35.4782 20.8782ZM35.399 20.8254L35.51 20.659L35.4596 20.6254H35.399V20.8254ZM30.2158 26.6285L30.3572 26.4871L30.2986 26.4285H30.2158V26.6285ZM30.2026 26.6285V26.4285H30.1258L30.0688 26.4799L30.2026 26.6285ZM30.0707 26.7472L29.9369 26.5986L29.5495 26.9472H30.0707V26.7472ZM30.0839 26.7472L30.2253 26.6058L30.1667 26.5472H30.0839V26.7472ZM30.2026 26.8659L30.0611 27.0074H30.0611L30.2026 26.8659ZM35.3067 31.97L35.1653 32.1115L35.2711 32.2173L35.4025 32.1456L35.3067 31.97ZM35.4518 31.8909V31.6909H35.4008L35.356 31.7153L35.4518 31.8909ZM35.465 31.8909V32.0909H35.947L35.6066 31.7497L35.465 31.8909ZM35.2444 20.684L30.0084 25.92L30.2912 26.2028L35.5273 20.9669L35.2444 20.684ZM29.9962 26.1895L30.0621 26.2686L30.3694 26.0125L30.3035 25.9334L29.9962 26.1895ZM30.2158 26.3406H30.2289V25.9406H30.2158V26.3406ZM30.3784 26.2734L30.4839 26.1547L30.185 25.889L30.0795 26.0077L30.3784 26.2734ZM30.4759 26.1633L35.6196 21.0196L35.3368 20.7368L30.193 25.8804L30.4759 26.1633ZM35.5891 20.7118L35.51 20.659L35.2881 20.9919L35.3672 21.0446L35.5891 20.7118ZM35.399 20.6254H35.3859V21.0254H35.399V20.6254ZM30.4759 26.6058L30.3572 26.4871L30.0743 26.77L30.193 26.8887L30.4759 26.6058ZM30.2158 26.4285H30.2026V26.8285H30.2158V26.4285ZM30.0688 26.4799L29.9369 26.5986L30.2045 26.8959L30.3364 26.7772L30.0688 26.4799ZM30.0707 26.9472H30.0839V26.5472H30.0707V26.9472ZM29.9424 26.8887L30.0611 27.0074L30.344 26.7245L30.2253 26.6058L29.9424 26.8887ZM30.0611 27.0074L35.1653 32.1115L35.4481 31.8286L30.344 26.7245L30.0611 27.0074ZM35.4025 32.1456L35.5476 32.0665L35.356 31.7153L35.2109 31.7945L35.4025 32.1456ZM35.4518 32.0909H35.465V31.6909H35.4518V32.0909ZM35.6066 31.7497L30.4761 26.606L30.1929 26.8885L35.3234 32.0321L35.6066 31.7497Z" fill="#191919" mask="url(#path-14-inside-5_148_2751)"/>
<path d="M30.2636 26.8181L35.3007 31.8553L35.2546 31.8846L16.3748 42.7616C15.3994 43.1898 14.6893 43.2141 14.1652 42.885L14.1654 42.8846L14.1567 42.8802C14.1408 42.8722 14.1246 42.8626 14.1077 42.8516L30.2055 26.7538L30.2599 26.8143L30.2598 26.8144L30.2636 26.8181Z" fill="white" stroke="#191919" stroke-width="0.2"/>
<path d="M27.0155 22.8386L27.0152 22.8383L14.1099 10.0379C14.6836 9.59678 15.4354 9.61183 16.3579 10.1242C16.358 10.1243 16.3582 10.1244 16.3583 10.1244L35.3062 20.8954L30.2504 25.9512L30.2024 25.9992L27.1473 22.9705L27.147 22.9702L27.0155 22.8386Z" fill="white" stroke="#191919" stroke-width="0.2"/>
</svg>
