<svg width="186" height="64" viewBox="0 0 186 64" fill="none" xmlns="http://www.w3.org/2000/svg">
<g clip-path="url(#clip0_1209_3485)">
<path d="M65.0333 7.21505L59.6478 13.8312C59.9028 15.0922 60.0289 16.3755 60.0243 17.6615C60.0243 24.0095 56.7606 30.1634 49.6515 30.1634H46.3412L42.4397 34.9491H49.3466C62.4386 34.9491 68.0139 26.3577 68.0139 17.2394C68.0139 13.3535 66.9623 9.94531 65.0333 7.21505ZM44.4994 4.99633H48.1332C53.0241 4.99633 56.3344 6.88841 58.198 10.0378L62.6501 4.57108C59.5389 1.82849 55.1832 0.256897 49.9253 0.256897H33.6724C34.1919 0.36167 36.9236 0.981063 36.9236 6.09336V28.4932C36.9236 34.3759 34.4626 34.9028 34.0364 34.9645H37.916L44.5025 26.86L44.4994 4.99633Z" fill="white"/>
<path d="M97.452 29.2759V16.4135L91.631 8.9777V29.2759C91.631 34.4344 89.3224 34.9028 88.9429 34.9491H100.622C100.093 34.9028 97.452 34.2711 97.452 29.2759ZM111.617 0.256897C112.09 0.36167 114.505 0.981063 114.505 5.98859V20.7308L97.9934 0.256897H89.2633L116.486 34.9491H120.291V5.98243C120.291 0.830066 122.653 0.30312 123.026 0.256897H111.617Z" fill="white"/>
<path d="M82.1667 29.5902V5.88382C82.1667 2.09042 83.5574 0.851637 84.3445 0.444872C84.5101 0.355743 84.6884 0.292345 84.8734 0.256897L71.9619 0.256897C72.3259 0.36167 74.6967 0.981063 74.6967 5.88382V29.5902C74.6967 34.4344 72.3259 34.9028 71.9619 34.9491H84.8423C84.4316 34.9028 82.1667 34.2711 82.1667 29.5902Z" fill="white"/>
<path d="M145.122 30.148L141.199 34.9583H150.654L152.328 25.2699C150.532 28.5271 148.918 29.9415 145.122 30.148ZM136.964 19.797H142.876C146.553 19.797 146.92 21.3378 146.976 21.5135V13.2826C146.87 13.5908 146.295 15.0453 142.77 15.0453H136.964V4.99633H143.591C148.009 4.99633 149.272 7.1904 150.013 9.52622V0.256897H126.184C126.716 0.36167 129.448 1.03961 129.448 6.09336V28.749C129.448 34.3297 126.974 34.9121 126.61 34.9491H136.672L140.561 30.1634H136.964V19.797Z" fill="white"/>
</g>
<path d="M8.14425 53.368C8.67225 53.464 8.92825 53.928 8.92825 54.744V57.192C8.33625 57.432 7.69625 57.544 7.04025 57.544C5.71225 57.544 4.65625 57.048 3.87225 56.056C3.15225 55.16 2.80025 54.072 2.80025 52.776C2.80025 51.512 3.15225 50.424 3.85625 49.544C4.60825 48.6 5.60025 48.136 6.83225 48.136C8.48025 48.136 9.68025 48.92 10.1283 50.2V47.976C9.28025 47.512 8.27225 47.288 7.13625 47.288C5.32825 47.288 3.88825 47.896 2.83225 49.112C1.88825 50.2 1.42425 51.528 1.42425 53.08C1.42425 54.568 1.85625 55.8 2.73625 56.808C3.71225 57.912 5.00825 58.456 6.65625 58.456C8.03225 58.456 9.21625 58.216 10.2083 57.72V54.728C10.2083 53.912 10.4643 53.448 10.9763 53.368H8.14425ZM20.6516 58.2C20.0916 58.072 19.6596 57.768 19.3716 57.288L17.5156 54.248C17.2436 53.8 16.9556 53.512 16.6836 53.4C17.6436 53.32 18.3956 52.984 18.9236 52.36C19.3716 51.832 19.5956 51.208 19.5956 50.472C19.5956 49.624 19.2756 48.936 18.6356 48.376C17.9956 47.816 17.1636 47.544 16.1236 47.544H12.3636C12.8916 47.64 13.1636 48.152 13.1636 49.064V56.728C13.1636 57.64 12.9076 58.12 12.3956 58.2H15.1956C14.6836 58.12 14.4276 57.64 14.4276 56.728V53.528H14.8276C15.3716 53.528 15.8356 53.832 16.2036 54.456L18.4436 58.2H20.6516ZM18.2676 50.552C18.2676 51.208 18.0916 51.72 17.7236 52.104C17.3076 52.552 16.6836 52.776 15.8516 52.776H14.3956V48.328H15.8516C16.6036 48.328 17.2116 48.552 17.6596 49.016C18.0596 49.448 18.2676 49.96 18.2676 50.552ZM32.0724 52.744C32.0724 51.16 31.6084 49.848 30.6964 48.824C29.7844 47.8 28.5684 47.288 27.0804 47.288C25.5284 47.288 24.2484 47.832 23.2564 48.92C22.2644 49.992 21.7684 51.352 21.7684 52.984C21.7684 54.568 22.2324 55.88 23.1604 56.904C24.0884 57.928 25.3044 58.44 26.7924 58.44C28.3604 58.44 29.6404 57.88 30.6324 56.776C31.5924 55.704 32.0724 54.36 32.0724 52.744ZM30.7924 53.112C30.7924 54.424 30.4564 55.496 29.7684 56.328C29.0804 57.144 28.2004 57.56 27.1124 57.56C25.9124 57.56 24.9364 57.096 24.1844 56.152C23.4484 55.208 23.0804 54.008 23.0804 52.52C23.0804 51.224 23.4164 50.168 24.1044 49.368C24.7924 48.568 25.6724 48.168 26.7604 48.168C27.9924 48.168 28.9684 48.632 29.6884 49.56C30.4244 50.472 30.7924 51.656 30.7924 53.112ZM40.3954 47.544C40.9554 47.624 41.2434 48.136 41.2434 49.048V54.632C41.2434 55.576 41.0514 56.28 40.6834 56.744C40.2354 57.304 39.4994 57.576 38.4754 57.576C36.4754 57.576 35.6114 56.664 35.6114 54.6V49C35.6114 48.12 35.8674 47.624 36.3794 47.544H33.5474C34.0594 47.624 34.3154 48.12 34.3154 49.016V54.632C34.3154 57.208 35.4834 58.44 38.2834 58.44C39.6914 58.44 40.7154 58.12 41.3554 57.464C41.9634 56.84 42.2674 55.864 42.2674 54.568V49.048C42.2674 48.12 42.5554 47.624 43.1154 47.544H40.3954ZM51.8326 50.632C51.8326 49.784 51.5446 49.064 50.9846 48.488C50.3606 47.864 49.4966 47.544 48.4246 47.544H44.4566C44.9846 47.624 45.2566 48.136 45.2566 49.048V56.728C45.2566 57.64 45.0006 58.12 44.4886 58.2H47.3046C46.7766 58.12 46.5046 57.64 46.5046 56.728V53.688C46.9366 53.832 47.4806 53.896 48.1366 53.896C49.3046 53.896 50.2166 53.56 50.9046 52.904C51.5286 52.296 51.8326 51.544 51.8326 50.632ZM50.5046 50.728C50.5046 52.088 49.6246 53.064 48.1046 53.064C47.4166 53.064 46.8726 53 46.5046 52.888V48.344H48.0566C48.8246 48.344 49.4326 48.584 49.8806 49.048C50.2966 49.48 50.5046 50.04 50.5046 50.728ZM67.1036 52.744C67.1036 51.16 66.6396 49.848 65.7276 48.824C64.8156 47.8 63.5996 47.288 62.1116 47.288C60.5596 47.288 59.2796 47.832 58.2876 48.92C57.2956 49.992 56.7996 51.352 56.7996 52.984C56.7996 54.568 57.2636 55.88 58.1916 56.904C59.1196 57.928 60.3356 58.44 61.8236 58.44C63.3916 58.44 64.6716 57.88 65.6636 56.776C66.6236 55.704 67.1036 54.36 67.1036 52.744ZM65.8236 53.112C65.8236 54.424 65.4876 55.496 64.7996 56.328C64.1116 57.144 63.2316 57.56 62.1436 57.56C60.9436 57.56 59.9676 57.096 59.2156 56.152C58.4796 55.208 58.1116 54.008 58.1116 52.52C58.1116 51.224 58.4476 50.168 59.1356 49.368C59.8236 48.568 60.7036 48.168 61.7916 48.168C63.0236 48.168 63.9996 48.632 64.7196 49.56C65.4556 50.472 65.8236 51.656 65.8236 53.112ZM75.1226 47.544H68.6906C69.2346 47.656 69.5066 48.152 69.5066 49.048V56.712C69.5066 57.624 69.2506 58.12 68.7226 58.2H71.5546C71.0426 58.12 70.7866 57.624 70.7866 56.728V53.144H73.0586C73.7466 53.144 74.1466 53.4 74.2426 53.896V51.608C74.1466 52.104 73.7466 52.36 73.0426 52.36H70.7866V48.328H73.3146C74.3226 48.328 74.9306 48.792 75.1226 49.72V47.544ZM88.386 58.2C87.826 58.072 87.394 57.768 87.106 57.288L85.25 54.248C84.978 53.8 84.69 53.512 84.418 53.4C85.378 53.32 86.13 52.984 86.658 52.36C87.106 51.832 87.33 51.208 87.33 50.472C87.33 49.624 87.01 48.936 86.37 48.376C85.73 47.816 84.898 47.544 83.858 47.544H80.098C80.626 47.64 80.898 48.152 80.898 49.064V56.728C80.898 57.64 80.642 58.12 80.13 58.2H82.93C82.418 58.12 82.162 57.64 82.162 56.728V53.528H82.562C83.106 53.528 83.57 53.832 83.938 54.456L86.178 58.2H88.386ZM86.002 50.552C86.002 51.208 85.826 51.72 85.458 52.104C85.042 52.552 84.418 52.776 83.586 52.776H82.13V48.328H83.586C84.338 48.328 84.946 48.552 85.394 49.016C85.794 49.448 86.002 49.96 86.002 50.552ZM96.6068 55.752C96.1108 57.016 95.5828 57.4 94.3188 57.4H91.6308V53.144H93.8228C94.5268 53.144 94.9268 53.4 95.0068 53.896V51.608C94.9108 52.104 94.5108 52.36 93.8068 52.36H91.6308V48.328H94.2388C95.1668 48.328 95.7268 48.808 95.9188 49.752V47.544H89.5028C90.0628 47.624 90.3348 48.136 90.3348 49.048V56.68C90.3348 57.608 90.0788 58.12 89.5508 58.2H96.2388L96.6068 55.752ZM104.039 55.56C104.039 54.552 103.607 53.736 102.743 53.08L100.311 51.672C99.4465 51.144 99.0145 50.536 99.0145 49.848C99.0145 48.904 99.7985 48.104 100.967 48.104C102.231 48.104 103.063 48.776 103.463 50.136V48.024C102.855 47.544 102.087 47.304 101.159 47.304C100.087 47.304 99.2385 47.608 98.6465 48.232C98.1505 48.744 97.8945 49.368 97.8945 50.12C97.8945 51.032 98.3265 51.816 99.1745 52.44L101.559 53.832C102.407 54.392 102.839 55.064 102.839 55.832C102.839 56.408 102.615 56.856 102.183 57.176C101.783 57.48 101.303 57.624 100.711 57.624C99.2545 57.624 98.2785 56.808 97.7665 55.176V57.608C98.5505 58.168 99.4785 58.44 100.519 58.44C101.863 58.44 102.839 58.056 103.447 57.304C103.847 56.808 104.039 56.232 104.039 55.56ZM113.744 47.544H105.296L105.136 49.8C105.312 49.256 105.504 48.888 105.744 48.68C106.016 48.456 106.448 48.344 107.024 48.344H108.88V56.712C108.88 57.624 108.624 58.12 108.112 58.2H110.944C110.432 58.12 110.176 57.624 110.176 56.712V48.344H112.016C112.608 48.344 113.024 48.456 113.296 48.696C113.536 48.904 113.728 49.272 113.904 49.816L113.744 47.544ZM125.111 58.2C124.583 58.088 124.103 57.464 123.655 56.36L119.895 47.096L116.103 56.344C115.799 57.112 115.463 57.656 115.127 57.96C114.983 58.088 114.855 58.168 114.711 58.2H117.367C116.935 58.136 116.727 57.88 116.727 57.432C116.727 57.24 116.807 56.936 116.967 56.536L117.607 54.904H121.719L122.375 56.6C122.551 57.064 122.647 57.384 122.647 57.544C122.647 57.928 122.471 58.152 122.135 58.2H125.111ZM117.911 54.104L119.655 49.72L121.399 54.104H117.911ZM132.989 47.544C133.549 47.624 133.837 48.136 133.837 49.048V54.632C133.837 55.576 133.645 56.28 133.277 56.744C132.829 57.304 132.093 57.576 131.069 57.576C129.069 57.576 128.205 56.664 128.205 54.6V49C128.205 48.12 128.461 47.624 128.973 47.544H126.141C126.653 47.624 126.909 48.12 126.909 49.016V54.632C126.909 57.208 128.077 58.44 130.877 58.44C132.285 58.44 133.309 58.12 133.949 57.464C134.557 56.84 134.861 55.864 134.861 54.568V49.048C134.861 48.12 135.149 47.624 135.709 47.544H132.989ZM145.37 58.2C144.81 58.072 144.378 57.768 144.09 57.288L142.234 54.248C141.962 53.8 141.674 53.512 141.402 53.4C142.362 53.32 143.114 52.984 143.642 52.36C144.09 51.832 144.314 51.208 144.314 50.472C144.314 49.624 143.994 48.936 143.354 48.376C142.714 47.816 141.882 47.544 140.842 47.544H137.082C137.61 47.64 137.882 48.152 137.882 49.064V56.728C137.882 57.64 137.626 58.12 137.114 58.2H139.914C139.402 58.12 139.146 57.64 139.146 56.728V53.528H139.546C140.09 53.528 140.554 53.832 140.922 54.456L143.162 58.2H145.37ZM142.986 50.552C142.986 51.208 142.81 51.72 142.442 52.104C142.026 52.552 141.402 52.776 140.57 52.776H139.114V48.328H140.57C141.322 48.328 141.93 48.552 142.378 49.016C142.778 49.448 142.986 49.96 142.986 50.552ZM156.439 58.2C155.911 58.088 155.431 57.464 154.983 56.36L151.223 47.096L147.431 56.344C147.127 57.112 146.791 57.656 146.455 57.96C146.311 58.088 146.183 58.168 146.039 58.2H148.695C148.263 58.136 148.055 57.88 148.055 57.432C148.055 57.24 148.135 56.936 148.295 56.536L148.935 54.904H153.047L153.703 56.6C153.879 57.064 153.975 57.384 153.975 57.544C153.975 57.928 153.799 58.152 153.463 58.2H156.439ZM149.239 54.104L150.983 49.72L152.727 54.104H149.239ZM164.829 47.544C165.389 47.656 165.661 48.152 165.661 49.032V55.496L159.245 47.544H157.165C157.981 47.88 158.381 48.424 158.381 49.192V56.728C158.381 57.608 158.109 58.104 157.565 58.2H160.189C159.597 58.104 159.309 57.608 159.309 56.728V49.688L166.573 58.664V49.032C166.573 48.152 166.845 47.656 167.405 47.544H164.829ZM177.103 47.544H168.655L168.495 49.8C168.671 49.256 168.863 48.888 169.103 48.68C169.375 48.456 169.807 48.344 170.383 48.344H172.239V56.712C172.239 57.624 171.983 58.12 171.471 58.2H174.303C173.791 58.12 173.535 57.624 173.535 56.712V48.344H175.375C175.967 48.344 176.383 48.456 176.655 48.696C176.895 48.904 177.087 49.272 177.263 49.816L177.103 47.544ZM184.71 55.56C184.71 54.552 184.278 53.736 183.414 53.08L180.982 51.672C180.118 51.144 179.686 50.536 179.686 49.848C179.686 48.904 180.47 48.104 181.638 48.104C182.902 48.104 183.734 48.776 184.134 50.136V48.024C183.526 47.544 182.758 47.304 181.83 47.304C180.758 47.304 179.91 47.608 179.318 48.232C178.822 48.744 178.566 49.368 178.566 50.12C178.566 51.032 178.998 51.816 179.846 52.44L182.23 53.832C183.078 54.392 183.51 55.064 183.51 55.832C183.51 56.408 183.286 56.856 182.854 57.176C182.454 57.48 181.974 57.624 181.382 57.624C179.926 57.624 178.95 56.808 178.438 55.176V57.608C179.222 58.168 180.15 58.44 181.19 58.44C182.534 58.44 183.51 58.056 184.118 57.304C184.518 56.808 184.71 56.232 184.71 55.56Z" fill="white"/>
<defs>
<clipPath id="clip0_1209_3485">
<rect width="118.655" height="35.2" fill="white" transform="translate(33.6724)"/>
</clipPath>
</defs>
</svg>
