<svg width="51" height="52" viewBox="0 0 51 52" fill="none" xmlns="http://www.w3.org/2000/svg">
<path fill-rule="evenodd" clip-rule="evenodd" d="M28.5863 38.5012L28.5863 20.7995L32.6293 24.7061C33.8608 25.8969 35.8144 25.85 36.9934 24.603C38.1662 23.3529 38.123 21.3777 36.8884 20.1838L27.6295 11.2361C27.5061 11.1173 27.3517 11.0642 27.2129 10.9673C27.0308 10.8391 26.8641 10.6954 26.6542 10.611C26.3734 10.4954 26.0802 10.4579 25.7808 10.4329C25.6851 10.4235 25.5987 10.3735 25.5 10.3735C25.4938 10.3735 25.4907 10.3766 25.4845 10.3766C25.0833 10.3797 24.6852 10.4579 24.3086 10.6172C23.9352 10.7735 23.5988 11.0048 23.3149 11.2892L14.059 20.6651C13.4572 21.2745 13.1547 22.0746 13.1547 22.8747C13.1547 23.6748 13.4572 24.4749 14.059 25.0843C15.2658 26.3063 17.2163 26.3063 18.4231 25.0843L22.4136 21.0433L22.4136 38.5012C22.4136 40.2264 23.7963 41.6265 25.5 41.6265C27.2036 41.6265 28.5863 40.2264 28.5863 38.5012ZM0.809493 26C0.809494 12.2143 11.8863 0.997557 25.5 0.997558C39.1137 0.997558 50.1904 12.2143 50.1904 26C50.1904 39.7857 39.1137 51.0025 25.5 51.0025C11.8863 51.0025 0.809492 39.7857 0.809493 26Z" fill="#D6D6D6"/>
</svg>
